<svg xmlns="http://www.w3.org/2000/svg" xmlns:xlink="http://www.w3.org/1999/xlink" xmlns:lucid="lucid" width="1547.6" height="1423"><g transform="translate(-33.902126736110986 -98.5)" lucid:page-tab-id="0_0"><path d="M0 0h2000v2000H0z" fill="#f2f3f5"/><path d="M340 100h1240v1420H340z" stroke="#242f3e" stroke-width="3" fill="#fff" fill-opacity="0"/><path d="M340 100h56v56h-56z" fill="#242f3e"/><path d="M358.2 125.87c0 .5.06.9.17 1.35.17.4.28.67.5 1.06.06.1.1.22.1.34 0 .16-.15.33-.32.44l-.9.62c-.17.1-.28.1-.4.1-.16 0-.33-.04-.44-.2-.2-.18-.38-.4-.55-.68-.17-.23-.28-.5-.45-.84-1.06 1.34-2.63 2.07-4.36 2.07-1.18.05-2.13-.34-2.97-1.12-.8-.78-1.12-1.73-1.12-2.85 0-1.23.45-2.24 1.4-3.08 1.06-.84 2.3-1.23 3.64-1.12.55 0 1 0 1.56.1.6.07 1.12.18 1.73.3v-1.07c.1-.9-.18-1.68-.68-2.4-.73-.57-1.57-.8-2.46-.68-.56 0-1.07.06-1.63.17-.56.17-1 .33-1.57.56l-.5.17h-.28c-.17 0-.34-.17-.34-.45v-.73c0-.22.06-.34.17-.5.12-.17.24-.28.4-.34.68-.34 1.18-.5 1.9-.67.8-.22 1.46-.27 2.3-.27 1.46-.1 2.8.28 3.87 1.17.95 1.07 1.4 2.3 1.23 3.7zm-6.05 2.3c.56 0 1.07-.1 1.63-.28.56-.24 1-.52 1.4-.96.28-.28.44-.62.5-.96.1-.44.17-.84.17-1.28v-.68c-.56-.1-.95-.16-1.46-.22H353c-.8-.06-1.58.1-2.2.56-.55.45-.78 1.06-.72 1.74-.06.6.1 1.17.5 1.62.45.34 1 .5 1.57.45zm12 1.57c-.24.05-.4 0-.57-.17-.17-.17-.28-.34-.34-.56l-3.47-11.53c-.06-.17-.1-.4-.17-.6 0-.24.17-.35.4-.35h1.45c.22 0 .4 0 .6.1.18.24.24.4.3.63l2.46 9.97 2.42-9.97c0-.23.05-.4.28-.56.16-.12.4-.18.56-.18h1.23c.2 0 .38.06.6.17.17.16.23.32.28.55l2.36 9.97 2.52-10.03c.05-.23.16-.4.33-.57.16-.1.38-.17.55-.17h1.4c.17 0 .34.12.4.34v.28s0 .22-.12.4L374 128.94c-.06.23-.12.45-.3.62-.2.1-.38.17-.55.17h-1.3c-.27 0-.43-.06-.6-.17-.17-.17-.28-.4-.28-.62l-2.3-9.57-2.3 9.57c-.05.23-.16.45-.33.62-.17.1-.4.17-.62.17zm19.2.4c-.8 0-1.52-.07-2.3-.24-.67-.16-1.12-.33-1.74-.6-.16-.12-.32-.24-.44-.46-.05-.1-.1-.28-.1-.4v-.78c0-.28.1-.44.33-.44h.27l.4.16c.55.23 1 .4 1.56.5.6.12 1.17.18 1.85.18.72.05 1.45-.06 2.12-.45.5-.33.8-.83.8-1.4 0-.44-.18-.78-.4-1.06-.45-.4-.96-.67-1.52-.78l-2.18-.67c-.95-.3-1.74-.74-2.4-1.52-.46-.68-.74-1.35-.74-2.2 0-.6.12-1.1.45-1.6.3-.52.63-.9 1.08-1.24.44-.34.95-.56 1.56-.73.68-.22 1.24-.27 1.9-.27h1.02l.95.17.85.22.67.28c.17.1.28.22.45.34.05.16.1.33.1.5v.73c0 .28-.1.45-.38.45-.18 0-.35-.06-.57-.17-.95-.45-1.8-.62-2.86-.56-.73-.07-1.34.04-2 .38-.46.28-.74.78-.7 1.34 0 .4.13.8.46 1.07.5.38 1 .6 1.63.77l2.07.67c.95.28 1.68.73 2.3 1.46.5.62.72 1.3.72 2.07 0 .67-.17 1.18-.4 1.74-.27.57-.6.96-1.1 1.35-.5.4-.96.67-1.58.84-.78.22-1.4.33-2.18.33zm2.74 7.32c-5.6 3.8-11.38 5.6-18.16 5.6-8.5 0-15.8-2.74-22.17-8.45-.45-.44 0-1 .5-.66 7.06 4.03 14.06 5.88 22.23 5.88 6.05-.06 11.26-1.07 16.92-3.48.84-.33 1.5.56.67 1.12zm2.06-2.24c-.62-.84-4.14-.4-5.77-.22-.46 0-.5-.34-.12-.67 2.8-1.96 7.45-1.4 8-.73.62.67-.1 5.26-2.74 7.5-.44.34-.78.12-.6-.28.5-1.56 1.84-4.87 1.22-5.6z" fill="#fff"/><use xlink:href="#a" transform="matrix(1,0,0,1,411,120) translate(0 21.52777777777778)"/><use xlink:href="#b" transform="matrix(1,0,0,1,411,120) translate(91.92708333333331 21.52777777777778)"/><path d="M380 200h1160v640H380z" stroke="#e7157b" stroke-width="3" fill="#fff" fill-opacity="0"/><path d="M380 200h56v56h-56z" fill="#e7157b"/><path d="M390.53 210.53h34.94v34.94h-34.94zm4.2 11.2h11.2v11.14h-11.2zm14.1 14v-.06a5.43 5.43 0 0 1 5.44-5.43 5.43 5.43 0 0 1 5.43 5.43 5.43 5.43 0 0 1-5.43 5.43 5.43 5.43 0 0 1-5.43-5.43v-.05" stroke="#fff" stroke-width="1.23" fill="none"/><path d="M416.46 213l6 12.14h-12zm-.06 2.34l-4.3 8.57h8.6z" fill="#fff"/><use xlink:href="#c" transform="matrix(1,0,0,1,451,220) translate(0 21.52777777777778)"/><use xlink:href="#d" transform="matrix(1,0,0,1,451,220) translate(80.68576388888887 21.52777777777778)"/><use xlink:href="#e" transform="matrix(1,0,0,1,451,220) translate(178.11414930555554 21.52777777777778)"/><use xlink:href="#f" transform="matrix(1,0,0,1,451,220) translate(243.58723958333331 21.52777777777778)"/><path d="M700 340h500v420H700z" fill="#fff" fill-opacity="0"/><path d="M717.86 340h11.9m11.9 0h11.9m11.92 0h11.9m11.9 0h11.9m11.92 0H825m11.9 0h11.9m11.9 0h11.92m11.9 0h11.9m11.9 0h11.92m11.9 0h11.9m11.9 0h11.92m11.9 0h11.9m11.9 0h11.92m11.9 0h11.9m11.9 0h11.9m11.92 0h11.9m11.9 0h11.9m11.92 0h11.9m11.9 0h11.9m11.92 0h11.9m11.9 0h5.96v6.18m0 12.35v12.35m0 12.36v12.35m0 12.34v12.35m0 12.35V445m0 12.35v12.36m0 12.36v12.35m0 12.37v12.35m0 12.35v12.35m0 12.36v12.35m0 12.35v12.36m0 12.35v12.34m0 12.35v12.35m0 12.35v12.35m0 12.36v12.36m0 12.35v12.37m0 12.35v12.35m0 12.35V760h-5.95m-11.9 0h-11.9m-11.92 0h-11.9m-11.9 0h-11.9m-11.92 0h-11.9m-11.9 0H1075m-11.9 0h-11.9m-11.9 0h-11.92m-11.9 0h-11.9m-11.9 0h-11.92m-11.9 0h-11.9m-11.9 0h-11.92m-11.9 0h-11.9m-11.9 0H884.5m-11.9 0h-11.9m-11.9 0H836.9m-11.9 0h-11.9m-11.9 0h-11.9m-11.92 0h-11.9m-11.9 0h-11.9m-11.92 0h-11.9m-11.9 0H700v-6.18m0-12.35v-12.35m0-12.36V704.4m0-12.34V679.7m0-12.35V655m0-12.35V630.3m0-12.36V605.6m0-12.37V580.9m0-12.35v-12.35m0-12.36v-12.35m0-12.35v-12.36m0-12.35v-12.34m0-12.35v-12.35m0-12.35v-12.35m0-12.36v-12.36m0-12.35v-12.37m0-12.35v-12.35m0-12.35V340h5.95" stroke="#7d8998" stroke-width="3" fill="none"/><use xlink:href="#g" transform="matrix(1,0,0,1,700,360) translate(76.76323784722226 21.52777777777778)"/><use xlink:href="#h" transform="matrix(1,0,0,1,700,360) translate(240.16384548611111 21.52777777777778)"/><use xlink:href="#i" transform="matrix(1,0,0,1,700,360) translate(256.63519965277777 21.52777777777778)"/><use xlink:href="#j" transform="matrix(1,0,0,1,700,360) translate(342.333984375 21.52777777777778)"/><path d="M380 920h1160v560H380z" stroke="#fcce14" stroke-width="2" fill="#fff3d9"/><use xlink:href="#k" transform="matrix(1,0,0,1,380,940) translate(511.03841145833337 21.52777777777778)"/><use xlink:href="#l" transform="matrix(1,0,0,1,380,940) translate(615.4329427083334 21.52777777777778)"/><path d="M420 1000h1080v440H420z" stroke="#e7157b" stroke-width="3" fill="#fff" fill-opacity="0"/><path d="M420 1000h56v56h-56z" fill="#e7157b"/><path d="M430.53 1010.53h34.94v34.94h-34.94zm4.2 11.2h11.2v11.14h-11.2zm14.1 14v-.06a5.43 5.43 0 0 1 5.44-5.43 5.43 5.43 0 0 1 5.43 5.43 5.43 5.43 0 0 1-5.43 5.43 5.43 5.43 0 0 1-5.43-5.43v-.05" stroke="#fff" stroke-width="1.23" fill="none"/><path d="M456.46 1013l6 12.14h-12zm-.06 2.34l-4.3 8.57h8.6z" fill="#fff"/><use xlink:href="#m" transform="matrix(1,0,0,1,491,1020) translate(0 21.52777777777778)"/><use xlink:href="#n" transform="matrix(1,0,0,1,491,1020) translate(125.71614583333334 21.52777777777778)"/><use xlink:href="#o" transform="matrix(1,0,0,1,491,1020) translate(219.55295138888889 21.52777777777778)"/><path d="M700 1100h500v262.76H700z" fill="#fff" fill-opacity="0"/><path d="M717.86 1100h11.9m11.9 0h11.9m11.92 0h11.9m11.9 0h11.9m11.92 0H825m11.9 0h11.9m11.9 0h11.92m11.9 0h11.9m11.9 0h11.92m11.9 0h11.9m11.9 0h11.92m11.9 0h11.9m11.9 0h11.92m11.9 0h11.9m11.9 0h11.9m11.92 0h11.9m11.9 0h11.9m11.92 0h11.9m11.9 0h11.9m11.92 0h11.9m11.9 0h5.96v5.97m0 11.94v11.96m0 11.94v11.95m0 11.94v11.93m0 11.95v11.94m0 11.94v11.95m0 11.95v11.95m0 11.94v11.94m0 11.94v11.95m0 11.94v11.96m0 11.94v11.94m0 11.95v5.96h-5.95m-11.9 0h-11.9m-11.92 0h-11.9m-11.9 0h-11.9m-11.92 0h-11.9m-11.9 0H1075m-11.9 0h-11.9m-11.9 0h-11.92m-11.9 0h-11.9m-11.9 0h-11.92m-11.9 0h-11.9m-11.9 0h-11.92m-11.9 0h-11.9m-11.9 0H884.5m-11.9 0h-11.9m-11.9 0H836.9m-11.9 0h-11.9m-11.9 0h-11.9m-11.92 0h-11.9m-11.9 0h-11.9m-11.92 0h-11.9m-11.9 0H700v-5.97m0-11.96v-11.94m0-11.94V1309m0-11.93v-11.94m0-11.95v-11.94m0-11.94v-11.95m0-11.94v-11.94m0-11.94v-11.94m0-11.95v-11.94m0-11.95v-11.95m0-11.94v-11.94m0-11.95V1100h5.95" stroke="#7d8998" stroke-width="3" fill="none"/><use xlink:href="#g" transform="matrix(1,0,0,1,700,1120) translate(76.76323784722226 21.52777777777778)"/><use xlink:href="#h" transform="matrix(1,0,0,1,700,1120) translate(240.16384548611111 21.52777777777778)"/><use xlink:href="#i" transform="matrix(1,0,0,1,700,1120) translate(256.63519965277777 21.52777777777778)"/><use xlink:href="#j" transform="matrix(1,0,0,1,700,1120) translate(342.333984375 21.52777777777778)"/><path d="M800 580h80v80h-80z" fill="#e7157b"/><path d="M863.74 610.37c-.4.1-.84.22-1.23.22-1.95 0-3.52-1.58-3.52-3.54 0-1.23.62-2.35 1.68-2.96.56-.34 1.18-.5 1.85-.5 1.92 0 3.48 1.56 3.48 3.46 0 1.46-.9 2.8-2.24 3.3zm-1.23-8.8c-.72 0-1.4.17-2.06.4-.56-.67-1.12-1.4-1.74-2.02-4.98-5.15-11.64-7.95-18.76-7.95-7.1 0-13.72 2.8-18.7 7.9l1.46 1.4c4.53-4.7 10.7-7.28 17.24-7.28 6.6 0 12.72 2.57 17.3 7.33.57.56 1.02 1.12 1.52 1.74-1.12 1-1.74 2.4-1.74 3.96 0 3.03 2.47 5.5 5.5 5.5.66 0 1.34-.12 1.9-.34 2.12-.8 3.58-2.86 3.58-5.16 0-3.02-2.46-5.48-5.5-5.48zm-19.08 41.17c-.12 1.84-1.63 3.24-3.48 3.24-1.84 0-3.36-1.4-3.47-3.3-.05-.06 0-.1 0-.17 0-1.95 1.57-3.52 3.47-3.52 1.9 0 3.53 1.57 3.53 3.53 0 .07 0 .12-.05.24zm20.38-28c.17 1.06.22 2.18.22 3.36 0 10.4-6.66 19.65-16.57 22.9-.67.22-1.35.4-2.07.56-.45-2.58-2.75-4.54-5.44-4.54-3.02 0-5.48 2.47-5.48 5.5v.33c.16 2.9 2.57 5.15 5.48 5.15 2.64 0 4.88-1.9 5.38-4.37.95-.22 1.9-.45 2.8-.73 10.7-3.52 17.92-13.5 17.92-24.8 0-1.24-.1-2.47-.28-3.64l-1.96.28zm-46.3-11.15c.6 0 1.22.16 1.78.44 1.06.67 1.74 1.8 1.74 3.02 0 1.96-1.57 3.53-3.53 3.53-.46 0-.9-.12-1.3-.3-1.34-.55-2.18-1.78-2.18-3.24 0-1.9 1.56-3.47 3.47-3.47zm-1.64 14.5c0-1.18.06-2.3.23-3.36.1-.8.27-1.52.44-2.24.33.05.6.05.95.05 3 0 5.48-2.46 5.48-5.5 0-1.95-1-3.74-2.7-4.7-.83-.5-1.78-.77-2.8-.77-3.02 0-5.48 2.46-5.48 5.48 0 1.96 1 3.7 2.63 4.7-.22.9-.4 1.74-.5 2.7-.17 1.12-.28 2.35-.28 3.64 0 11.3 7.22 21.28 17.92 24.8l.67-1.9c-9.9-3.25-16.58-12.5-16.58-22.9zM833 630.98v-6.78l6-3.42v6.78l-6 3.42zm-8.06-10.2l6.04 3.42v6.78l-6.04-3.42v-6.78zm7.05-5.1l5.98 3.37-6 3.4-5.98-3.4 6-3.36zm1-8.56l6 3.42v6.83l-6-3.42v-6.83zm7-5.1l6 3.42-6 3.36-6-3.36 6-3.42zm7.06 11.93l-6.05 3.42v-6.83l6.06-3.42v6.83zm6.94 5.1l-6 3.4-5.98-3.4 6-3.36 5.98 3.35zm1.06 8.5l-6.04 3.43v-6.78l6.04-3.42v6.78zm-8 3.43l-6.05-3.42v-6.78l6.06 3.42v6.78zm.5 2.57c.1.1.28.17.45.17.18 0 .34-.06.5-.17l8.02-4.53c.34-.17.56-.5.56-.84v-9.13c0-.34-.22-.67-.56-.84l-7.5-4.25v-8.5c0-.4-.17-.74-.5-.9L840.5 600c-.33-.16-.67-.16-1 0l-8 4.54c-.35.17-.52.5-.52.9v8.5l-7.5 4.27c-.34.18-.56.5-.56.85v9.13c0 .33.22.67.56.84l8 4.53c.3.17.68.17.96 0l7.56-4.25 7.56 4.25z" stroke="#000" stroke-opacity="0" fill="#fff"/><use xlink:href="#p" transform="matrix(1,0,0,1,720,669) translate(18.90190972222223 17.22222222222222)"/><use xlink:href="#q" transform="matrix(1,0,0,1,720,669) translate(116.51475694444446 17.22222222222222)"/><use xlink:href="#r" transform="matrix(1,0,0,1,720,669) translate(132.96440972222223 17.22222222222222)"/><path d="M1124.73 487.7c-.32 0-.56 0-.88.06-.96.1-1.92.2-2.96.28l-.25.05c-3.2.3-6.88.7-8.56.45-1.13-.14-3.13-1.02-5.2-1.96-3.6-1.55-8-3.5-12-3.83-5.53-.42-15.13.6-21.3 3.54-3.5-.13-6.87-1.1-9.43-2.74v-1.17c0-7.6 3.52-14.75 9.68-19.56 4.16-2.47 8.96-3.78 13.92-3.78 11.04 0 20.96 6.63 24.8 16.43h-1.52c-1.44 0-2.72 1.06-2.96 2.46-.33-.1-.5-.2-.8-.33-3.7-1.4-8.73-3.36-14.57-3.03-8.56.5-12.72 1.03-16.08 2l1.04 3.5c3.03-.83 7.03-1.35 15.27-1.8 5.04-.34 9.68 1.48 13.04 2.8l2 .73v.38c0 1.73 1.37 3.13 3.05 3.13h6.64c1.67 0 3.1-1.4 3.1-3.12l.65-.04 2.88-.28.4-.05v5.88zm-62.24 3.05c-4.8.65-8.65.1-10.17-.9.96-.7 3.04-1.62 4.56-2.32 1.35-.56 2.63-1.17 3.9-1.82 2.17 1.6 4.73 2.8 7.6 3.55-1.67.66-3.75 1.22-5.9 1.5zm49.1-9.1v-2.48h5.53v2.48h-5.52zm-18.63-29.92c15.2 0 27.92 11.58 29.76 26.6-.48.05-1.04.1-1.6.2h-.32c-.07-1.7-1.43-3.04-3.1-3.04h-1.3c-4-11.9-15.6-20.13-28.63-20.13-4.88 0-9.6 1.12-13.92 3.27.08-.05.08-.05.08-.1 5.36-4.38 12.08-6.8 19.04-6.8zm34.32 27.16c-.25-.24-.57-.43-.9-.57-1.9-17.08-16.3-30.28-33.43-30.28-7.76 0-15.36 2.7-21.28 7.65-7.93 6.53-12.5 16.2-12.5 26.46v.23c-1.2.6-2.47 1.2-3.75 1.77-3.84 1.72-6.64 2.94-7.04 5.18-.15.6-.15 1.68.9 2.8 1.9 1.86 5.5 2.56 9.2 2.56 1.5 0 3.03-.13 4.47-.3 2.4-.34 6.96-1.23 10.08-3.5 4.8-3.6 15.84-4.9 21.52-4.45 3.44.24 7.6 2.06 10.88 3.5 2.56 1.12 4.56 2 6.08 2.24 2.16.27 5.76-.1 9.44-.47l.32-.05c.95-.1 1.9-.2 2.87-.28.4 0 .8-.05 1.28-.1 1.6-.1 2.88-1.44 2.88-3.07v-7.05c0-.84-.4-1.68-1.04-2.3z" stroke="#000" stroke-opacity="0" fill="#dd344c"/><use xlink:href="#s" transform="matrix(1,0,0,1,968.330256754489,503.71264367816093) translate(63.693576388888886 17.22222222222222)"/><use xlink:href="#t" transform="matrix(1,0,0,1,968.330256754489,503.71264367816093) translate(130.41232638888889 17.22222222222222)"/><path d="M870.96 475.35l.4-3.06c3.36 1.98 4.4 3.13 4.72 3.7-.88.26-2.72 0-5.12-.65zM837.44 464c0-.07.08-.15.24-.15l-.08.33c-.08-.08-.16-.08-.16-.17zm26 38.9c-.08.1-.08.18-.08.26 0 .25-.72 1.4-3.84 2.65-1.44.5-3.12 1-5.04 1.5-4.88 1.07-10.88 1.73-16.8 1.73-16.08 0-25.76-4.13-25.76-5.87v-.25l-7.28-53.62c.48.33.96.58 1.44.83.16.1.32.18.48.18.48.24.96.4 1.44.66.24.08.4.16.64.25.56.15 1.04.32 1.6.57.16 0 .32.08.48.08.72.25 1.52.5 2.24.66.24.1.48.18.64.18.64.16 1.2.33 1.84.4.24.1.56.18.8.18.72.16 1.36.33 2.08.4.16.1.32.1.48.1.88.16 1.76.32 2.64.5.24 0 .56 0 .8.07l2.08.25c.24 0 .56.08.8.08l2.56.25h.32c.96.1 1.92.18 2.88.26h.8c.72.08 1.44.08 2.24.08.24 0 .56 0 .8.08h5.84c.24-.08.56-.08.8-.08.8 0 1.52 0 2.24-.08h.8l2.88-.25h.32c.88-.07 1.68-.15 2.56-.24.24 0 .56-.08.8-.08l2.08-.25c.24-.08.56-.08.8-.08l2.64-.5c.16 0 .32 0 .48-.08.72-.08 1.36-.25 2.08-.42.32 0 .56-.08.8-.16.64-.1 1.2-.26 1.84-.42.16-.1.4-.1.64-.17.72-.15 1.52-.4 2.24-.65.16 0 .32-.08.48-.08.56-.25 1.12-.42 1.6-.58.24-.1.4-.18.64-.26.48-.25.96-.42 1.44-.66.16 0 .32-.1.48-.17.48-.24 1.04-.5 1.44-.82l-3.36 25c-6.88-2.16-16.56-6.13-25.68-10.43-.08-2.07-1.84-3.73-3.92-3.73-2.24 0-4 1.74-4 3.9 0 2.15 1.76 3.97 4 3.97.8 0 1.6-.35 2.24-.76 8.24 3.9 18.72 8.53 26.88 10.84l-3.36 24.83zm-25.76-69.18c19.68 0 33.52 6.13 33.84 9.44l-.08.4c0 .1-.08.26-.16.34-.08.17-.08.25-.16.33-.08.1-.24.25-.32.34-.08.08-.16.24-.32.33-.08.08-.24.25-.4.33-.16.08-.32.25-.48.33-.16.08-.32.25-.56.33-.16.16-.32.24-.56.32-.16.17-.4.25-.64.33-.24.17-.48.25-.72.33-.24.17-.56.25-.8.33-.32.18-.56.26-.88.35-.24.16-.56.24-.88.33-.32.16-.64.24-.96.33-.32.1-.64.25-1.04.34-.32.08-.64.16-1.04.33-.4.08-.8.16-1.12.25l-1.2.25c-.4.16-.88.24-1.28.33l-1.28.25-1.36.24c-.48.08-.88.16-1.36.16l-1.52.25c-.48.1-.88.17-1.36.17-.56.1-1.12.17-1.68.17-.48.08-.96.16-1.44.16-.64.1-1.28.1-1.92.17-.48 0-.88.08-1.36.08-.72.08-1.44.08-2.16.08-.4.1-.8.1-1.28.1-1.12 0-2.32.07-3.52.07-1.28 0-2.48-.08-3.6-.08-.48 0-.88 0-1.28-.1-.72 0-1.44 0-2.16-.07-.48 0-.96-.08-1.44-.08-.64-.08-1.28-.08-1.84-.17-.48 0-.96-.08-1.44-.16-.56 0-1.12-.08-1.68-.17-.48 0-.88-.08-1.36-.16l-1.52-.24c-.48 0-.96-.08-1.36-.17-.48-.1-.96-.17-1.36-.25l-1.28-.25c-.4-.1-.88-.17-1.28-.33-.4-.1-.8-.17-1.2-.25-.32-.1-.72-.17-1.12-.25-.4-.17-.72-.25-1.04-.33-.4-.1-.72-.25-1.04-.33-.32-.08-.64-.16-.96-.32-.32-.1-.64-.17-.88-.33-.32-.1-.56-.17-.88-.34-.24-.07-.56-.15-.8-.32-.24-.08-.48-.16-.72-.33-.16-.08-.48-.16-.64-.33-.24-.08-.4-.17-.56-.33-.24-.1-.4-.26-.56-.34-.16-.08-.32-.25-.48-.33-.16-.1-.32-.25-.4-.33-.16-.1-.24-.25-.32-.33-.08-.1-.24-.25-.32-.34-.08-.08-.08-.24-.16-.33-.08-.08-.16-.25-.16-.33l-.08-.4c.32-3.32 14.16-9.45 33.92-9.45zm42.24 41.88c-.4-2.23-2.88-4.47-8-7.37l3.28-24 .08-.74v-.26c0-7.78-19.84-13.24-37.6-13.24-17.84 0-37.68 5.46-37.68 13.24v.25l.08.73 8 59c.32 6.96 18.24 9.53 29.6 9.53 6.24 0 12.48-.66 17.68-1.82 2.08-.5 3.92-1.08 5.52-1.66 4.08-1.65 6.24-3.64 6.32-6.04l3.28-24.25c1.76.4 3.44.57 4.8.57 1.84 0 3.2-.33 3.92-1.24.64-.74.96-1.74.72-2.73z" stroke="#000" stroke-opacity="0" fill="#7aa116"/><use xlink:href="#u" transform="matrix(1,0,0,1,720,521.7586206896551) translate(8.871527777777786 17.22222222222222)"/><use xlink:href="#v" transform="matrix(1,0,0,1,720,521.7586206896551) translate(70.2951388888889 17.22222222222222)"/><use xlink:href="#w" transform="matrix(1,0,0,1,720,521.7586206896551) translate(81.7013888888889 17.22222222222222)"/><use xlink:href="#x" transform="matrix(1,0,0,1,720,521.7586206896551) translate(173.28993055555554 17.22222222222222)"/><path d="M1046.97 604.8h81.36V580h-81.36v24.8zm3.75-3.68v-17.44h73.87v17.44h-73.88zm38.32 31.28h39.3v-24.8h-39.3v24.8zm3.74-3.68v-17.44h31.8v17.44h-31.8zm-45.8 3.68h39.3v-24.8h-39.3v24.8zm3.74-3.68v-17.44h31.8v17.44h-31.8zM1103.6 660h24.73v-24.8h-24.73V660zm3.66-3.68v-17.44h17.33v17.44h-17.34zm-32.8 3.68h26.37v-24.8h-26.36V660zm3.75-3.68v-17.44h18.9v17.44h-18.88zm-31.23 3.68h24.74v-24.8h-24.73V660zm3.75-3.68v-17.44h17.24v17.44h-17.24z" stroke="#000" stroke-opacity="0" fill="#e7157b"/><use xlink:href="#s" transform="matrix(1,0,0,1,965.6183923477095,669) translate(70.88541666666666 17.22222222222222)"/><use xlink:href="#y" transform="matrix(1,0,0,1,965.6183923477095,669) translate(137.60416666666666 17.22222222222222)"/><use xlink:href="#z" transform="matrix(1,0,0,1,965.6183923477095,669) translate(80.49913194444444 43.034722222222214)"/><path d="M500 660h80v80h-80z" fill="#dd344c"/><path d="M567.47 722.3l-14.85-14.88c-.3-.28-.4-.78-.18-1.16 2.05-4 1.3-9.05-1.93-12.27-2.33-2.3-5.48-3.4-8.7-3-3.22.38-6.08 2.26-7.84 5.1-2.04 3.38-1.93 7.7.24 11 3.04 4.6 8.95 6.15 13.68 3.7.4-.2.88-.16 1.17.18l2.52 2.44c.17.22.3.44.3.72v3.27h3.2c.3 0 .53.07.7.3l1.4 1.38c.25.22.3.44.3.72v3.22h3.28c.23 0 .52.1.7.34l1.87 1.83 3.92.27.23-3.17zm2.05-.28l-.35 4.56c-.06.55-.47.94-1 .94h-.05l-5.33-.33c-.24-.07-.47-.18-.65-.35l-1.8-1.83h-3.87c-.53 0-1-.44-1-1v-3.77l-.8-.84h-3.8c-.6 0-1.07-.43-1.07-1v-3.82l-1.63-1.66c-5.55 2.44-12.16.5-15.6-4.72-2.64-3.94-2.76-9.1-.3-13.1 2.05-3.4 5.44-5.6 9.3-6.06 3.8-.5 7.6.84 10.35 3.56 3.62 3.66 4.68 9.27 2.63 13.93l14.68 14.72c.23.16.3.44.3.77zm-24.03-20.7c0-.67-.3-1.28-.78-1.73-.46-.5-1.1-.78-1.75-.78-.64 0-1.3.27-1.75.77-1 .94-1 2.55 0 3.5.93 1 2.57 1 3.5 0 .47-.45.76-1.12.76-1.78zm.63-3.17c.88.83 1.34 2 1.34 3.17 0 1.22-.47 2.33-1.34 3.2-.88.85-2 1.3-3.16 1.3-1.17 0-2.28-.45-3.16-1.3-1.74-1.76-1.74-4.6 0-6.37.83-.83 1.94-1.33 3.17-1.33s2.34.5 3.16 1.33zm-24.1 6.77h6.03v2h-6.03c-5.84 0-10.64-4.16-11-9.44v-.72c0-6.55 4.63-8.94 7.38-9.83-.05-.27-.05-.55-.05-.88 0-5.33 3.8-10.88 8.77-12.88 5.8-2.34 11.93-1.17 16.43 3.16 1.23 1.1 2.75 2.78 3.8 4.83 1.12-1 2.4-1.5 3.87-1.5 2.92 0 6.2 2.33 6.78 7.44 6.02 1.4 9.06 4.66 9.06 9.83 0 5.38-3.2 9.05-8.83 10l-.35-2c3.28-.56 7.2-2.34 7.2-8 0-4.4-2.64-6.94-8.25-8.05-.4-.06-.76-.45-.76-.9-.23-3.7-2.22-6.32-4.85-6.32-1.35 0-2.34.56-3.4 1.9-.23.27-.58.38-.93.32-.36-.05-.65-.28-.77-.6-.88-2.34-2.63-4.28-3.92-5.5-3.9-3.78-9.3-4.78-14.38-2.73-4.15 1.67-7.48 6.5-7.48 11 0 .5.06 1 .12 1.5v.1c0 .5-.36.95-.88 1-2.46.67-6.55 2.56-6.55 8.1 0 .18 0 .4.06.57.22 4.27 4.14 7.6 8.93 7.6z" stroke="#000" stroke-opacity="0" fill="#fff"/><use xlink:href="#A" transform="matrix(1,0,0,1,420,749) translate(16.180555555555543 17.22222222222222)"/><use xlink:href="#B" transform="matrix(1,0,0,1,420,749) translate(61.36284722222221 17.22222222222222)"/><use xlink:href="#C" transform="matrix(1,0,0,1,420,749) translate(99.46180555555554 17.22222222222222)"/><use xlink:href="#D" transform="matrix(1,0,0,1,420,749) translate(167.265625 17.22222222222222)"/><path d="M1343.64 603.64h72.72v72.72h-72.72z" stroke="#000" stroke-opacity="0" fill="#7aa116"/><path d="M1340 600h80v80h-80z" stroke="#879196" stroke-width="2" fill-opacity="0"/><path d="M1376.4 660.9h6.36v-1.82h-6.36v1.83zm-10.92 0h6.36v-1.82h-6.36v1.83zm10.92-5.43h6.36v-1.83h-6.36v1.83zm-10.92 0h6.36v-1.83h-6.36v1.83zm10.92-7.28h6.36v-1.84h-6.36v1.83zm-10.92 0h6.36v-1.84h-6.36v1.83zm23.64 10.88v-10.9h3.64v10.9h-3.64zm4.56-12.72h-5.44c-.5 0-.92.4-.92.92V660c0 .5.42.9.92.9h5.44c.5 0 .92-.4.92-.9v-12.72c0-.5-.42-.92-.92-.92zm-27.28-4.53v-6.36h26.36v6.36h-26.36zm-.92-8.2c-.5 0-.92.42-.92.93v8.2c0 .45.42.85.92.85h28.2c.5 0 .92-.4.92-.85v-8.2c0-.5-.42-.9-.92-.9h-28.2zm33.68 29.98h-38.24v-35.4h10.04v1.83c0 .46.38.86.88.86h16.4c.5 0 .88-.4.88-.87v-1.83h10.04v35.4zm-27.4-47.2h11c2.26 0 4.56 1.32 4.56 3.6V629.1h-14.56V620c0-1.32-.34-2.6-1-3.6zm-5.82 5.44v-1.9c0-3.14 1.17-3.55 2.26-3.55 2.55 0 2.76 2.74 2.76 3.6v1.84h-5.02zm34.1 4.52h-10.92V620c0-3.4-3.22-5.44-6.36-5.44h-14.56c-1.84 0-4.06.92-4.06 5.4v2.8c0 .5.38.9.88.9h5.94v2.7h-10.92c-.5 0-.92.4-.92.92v37.24c0 .5.42.92.92.92h40c.5 0 .92-.4.92-.92v-37.24c0-.5-.42-.92-.92-.92z" stroke="#000" stroke-opacity="0" fill="#fff"/><use xlink:href="#E" transform="matrix(1,0,0,1,1260,689) translate(64.71788194444444 17.22222222222222)"/><use xlink:href="#F" transform="matrix(1,0,0,1,1260,689) translate(77.85590277777777 43.034722222222214)"/><use xlink:href="#G" transform="matrix(1,0,0,1,1260,689) translate(121.70138888888889 43.034722222222214)"/><path d="M564.98 550.48h-18.96l-.88.06-.85.2-.8.34-.75.45-.66.56-.57.65-.45.74-.33.8-.2.84-.07.88V659.5h-.96V555.98l.08-1 .24-.98.4-.94.52-.87.66-.78.77-.66.86-.53.94-.4 1-.23.98-.08h19zm117.14 0h-21.84v-.96h21.84z" stroke="#3a414a" stroke-width=".05" fill="#3a414a"/><path d="M540.48 660h-.96v-.5h.96z" fill="#3a414a"/><path stroke="#3a414a" stroke-width=".05" fill="#3a414a"/><path d="M696.88 550l-14.26 4.63v-9.26z" fill="#3a414a"/><path d="M698.42 550l-16.28 5.3v-10.6zm-15.33 3.98l12.25-3.98-12.26-3.98z" stroke="#3a414a" stroke-width=".05" fill="#3a414a"/><use xlink:href="#H" transform="matrix(1,0,0,1,564.9836505925979,539.2447916666666) translate(0.005000000000002558 17.22222222222222)"/><use xlink:href="#I" transform="matrix(1,0,0,1,564.9836505925979,539.2447916666666) translate(36.19423611111112 17.22222222222222)"/><path d="M800 1200h80v80h-80z" fill="#e7157b"/><path d="M863.74 1230.37c-.4.1-.84.22-1.23.22-1.95 0-3.52-1.58-3.52-3.54 0-1.23.62-2.35 1.68-2.96.56-.34 1.18-.5 1.85-.5 1.92 0 3.48 1.56 3.48 3.46 0 1.46-.9 2.8-2.24 3.3zm-1.23-8.8c-.72 0-1.4.17-2.06.4-.56-.67-1.12-1.4-1.74-2.02-4.98-5.15-11.64-7.95-18.76-7.95-7.1 0-13.72 2.8-18.7 7.9l1.46 1.4c4.53-4.7 10.7-7.28 17.24-7.28 6.6 0 12.72 2.57 17.3 7.33.57.56 1.02 1.12 1.52 1.74-1.12 1-1.74 2.4-1.74 3.96 0 3.03 2.47 5.5 5.5 5.5.66 0 1.34-.12 1.9-.34 2.12-.8 3.58-2.86 3.58-5.16 0-3.02-2.46-5.48-5.5-5.48zm-19.08 41.17c-.12 1.84-1.63 3.24-3.48 3.24-1.84 0-3.36-1.4-3.47-3.3-.05-.06 0-.1 0-.17 0-1.95 1.57-3.52 3.47-3.52 1.9 0 3.53 1.57 3.53 3.53 0 .07 0 .12-.05.24zm20.38-28c.17 1.06.22 2.18.22 3.36 0 10.4-6.66 19.65-16.57 22.9-.67.22-1.35.4-2.07.56-.45-2.58-2.75-4.54-5.44-4.54-3.02 0-5.48 2.47-5.48 5.5v.33c.16 2.9 2.57 5.15 5.48 5.15 2.64 0 4.88-1.9 5.38-4.37.95-.22 1.9-.45 2.8-.73 10.7-3.52 17.92-13.5 17.92-24.8 0-1.24-.1-2.47-.28-3.64l-1.96.28zm-46.3-11.15c.6 0 1.22.16 1.78.44 1.06.67 1.74 1.8 1.74 3.02 0 1.96-1.57 3.53-3.53 3.53-.46 0-.9-.12-1.3-.3-1.34-.55-2.18-1.78-2.18-3.24 0-1.9 1.56-3.47 3.47-3.47zm-1.64 14.5c0-1.18.06-2.3.23-3.36.1-.8.27-1.52.44-2.24.33.05.6.05.95.05 3 0 5.48-2.46 5.48-5.5 0-1.95-1-3.74-2.7-4.7-.83-.5-1.78-.77-2.8-.77-3.02 0-5.48 2.46-5.48 5.48 0 1.96 1 3.7 2.63 4.7-.22.9-.4 1.74-.5 2.7-.17 1.12-.28 2.35-.28 3.64 0 11.3 7.22 21.28 17.92 24.8l.67-1.9c-9.9-3.25-16.58-12.5-16.58-22.9zm17.14 12.88v-6.78l6-3.42v6.78l-6 3.42zm-8.06-10.2l6.04 3.42v6.78l-6.04-3.42v-6.78zm7.05-5.1l5.98 3.37-6 3.4-5.98-3.4 6-3.36zm1-8.56l6 3.42v6.83l-6-3.42v-6.83zm7-5.1l6 3.42-6 3.36-6-3.36 6-3.42zm7.06 11.93l-6.05 3.42v-6.83l6.06-3.42v6.83zm6.94 5.1l-6 3.4-5.98-3.4 6-3.36 5.98 3.35zm1.06 8.5l-6.04 3.43v-6.78l6.04-3.42v6.78zm-8 3.43l-6.05-3.42v-6.78l6.06 3.42v6.78zm.5 2.57c.1.1.28.17.45.17.18 0 .34-.06.5-.17l8.02-4.53c.34-.17.56-.5.56-.84v-9.13c0-.34-.22-.67-.56-.84l-7.5-4.25v-8.5c0-.4-.17-.74-.5-.9l-8.02-4.54c-.33-.16-.67-.16-1 0l-8 4.54c-.35.17-.52.5-.52.9v8.5l-7.5 4.27c-.34.18-.56.5-.56.85v9.13c0 .33.22.67.56.84l8 4.53c.3.17.68.17.96 0l7.56-4.25 7.56 4.25z" stroke="#000" stroke-opacity="0" fill="#fff"/><use xlink:href="#p" transform="matrix(1,0,0,1,720,1289) translate(18.90190972222223 17.22222222222222)"/><use xlink:href="#q" transform="matrix(1,0,0,1,720,1289) translate(116.51475694444446 17.22222222222222)"/><use xlink:href="#r" transform="matrix(1,0,0,1,720,1289) translate(132.96440972222223 17.22222222222222)"/><path d="M1124.73 1247.7c-.32 0-.56 0-.88.06-.96.1-1.92.2-2.96.28l-.25.05c-3.2.3-6.88.7-8.56.45-1.13-.14-3.13-1.02-5.2-1.96-3.6-1.55-8-3.5-12-3.83-5.53-.42-15.13.6-21.3 3.54-3.5-.13-6.87-1.1-9.43-2.74v-1.17c0-7.6 3.52-14.75 9.68-19.56 4.16-2.47 8.96-3.78 13.92-3.78 11.04 0 20.96 6.63 24.8 16.43h-1.52c-1.44 0-2.72 1.06-2.96 2.46-.33-.1-.5-.2-.8-.33-3.7-1.4-8.73-3.36-14.57-3.03-8.56.5-12.72 1.03-16.08 2l1.04 3.5c3.03-.83 7.03-1.35 15.27-1.8 5.04-.34 9.68 1.48 13.04 2.8l2 .73v.38c0 1.73 1.37 3.13 3.05 3.13h6.64c1.67 0 3.1-1.4 3.1-3.12l.65-.04 2.88-.28.4-.05v5.88zm-62.24 3.05c-4.8.65-8.65.1-10.17-.9.96-.7 3.04-1.62 4.56-2.32 1.35-.56 2.63-1.17 3.9-1.82 2.17 1.6 4.73 2.8 7.6 3.55-1.67.66-3.75 1.22-5.9 1.5zm49.1-9.1v-2.48h5.53v2.48h-5.52zm-18.63-29.92c15.2 0 27.92 11.58 29.76 26.6-.48.05-1.04.1-1.6.2h-.32c-.07-1.7-1.43-3.04-3.1-3.04h-1.3c-4-11.9-15.6-20.13-28.63-20.13-4.88 0-9.6 1.12-13.92 3.27.08-.05.08-.05.08-.1 5.36-4.38 12.08-6.8 19.04-6.8zm34.32 27.16c-.25-.24-.57-.43-.9-.57-1.9-17.08-16.3-30.28-33.43-30.28-7.76 0-15.36 2.7-21.28 7.65-7.93 6.53-12.5 16.2-12.5 26.46v.23c-1.2.6-2.47 1.2-3.75 1.77-3.84 1.72-6.64 2.94-7.04 5.18-.15.6-.15 1.68.9 2.8 1.9 1.86 5.5 2.56 9.2 2.56 1.5 0 3.03-.13 4.47-.3 2.4-.34 6.96-1.23 10.08-3.5 4.8-3.6 15.84-4.9 21.52-4.45 3.44.24 7.6 2.06 10.88 3.5 2.56 1.12 4.56 2 6.08 2.24 2.16.27 5.76-.1 9.44-.47l.32-.05c.95-.1 1.9-.2 2.87-.28.4 0 .8-.05 1.28-.1 1.6-.1 2.88-1.44 2.88-3.07v-7.05c0-.84-.4-1.68-1.04-2.3z" stroke="#000" stroke-opacity="0" fill="#dd344c"/><use xlink:href="#s" transform="matrix(1,0,0,1,968.330256754489,1263.712643678161) translate(63.693576388888886 17.22222222222222)"/><use xlink:href="#t" transform="matrix(1,0,0,1,968.330256754489,1263.712643678161) translate(130.41232638888889 17.22222222222222)"/><path d="M540.48 1225.36l.06.88.2.85.34.8.45.73.56.65.65.57.74.45.8.33.84.2.88.07h15.6v.95h-15.64l-1-.07-.98-.24-.94-.4-.87-.52-.78-.66-.66-.77-.53-.88-.4-.94-.23-1-.08-.98V772h.96zm141.64 5.54v.95h-39.47v-.95zM540.48 750h-.96v-9.5h.96z" stroke="#3a414a" stroke-width=".05" fill="#3a414a"/><path d="M540.48 740.5h-.96v-.5h.96z" fill="#3a414a"/><path stroke="#3a414a" stroke-width=".05" fill="#3a414a"/><path d="M696.88 1231.38l-14.26 4.63v-9.26z" fill="#3a414a"/><path d="M698.42 1231.38l-16.28 5.3v-10.6zm-15.33 3.98l12.25-3.98-12.26-3.98z" stroke="#3a414a" stroke-width=".05" fill="#3a414a"/><use xlink:href="#J" transform="matrix(1,0,0,1,561.6137875121029,1207.7178520114942) translate(0.005000000000002558 17.22222222222222)"/><use xlink:href="#K" transform="matrix(1,0,0,1,561.6137875121029,1207.7178520114942) translate(69.10222222222222 17.22222222222222)"/><use xlink:href="#L" transform="matrix(1,0,0,1,561.6137875121029,1207.7178520114942) translate(8.507604166666667 43.034722222222214)"/><path d="M950.7 1079.3l.3.7-.3.7-.7.3-.7-.3-.3-.7.3-.7.7-.3zm0-4.03l.3.7-.3.72-.7.28-.7-.3-.3-.7.3-.7.7-.3zm0-4.02l.3.7-.3.72-.7.3-.7-.3-.3-.7.3-.72.7-.3zm0-4.02l.3.7-.3.72-.7.3-.7-.3-.3-.7.3-.72.7-.3zm0-4.02l.3.72-.3.7-.7.3-.7-.3-.3-.7.3-.7.7-.3zm0-4l.3.7-.3.7-.7.3-.7-.3-.3-.7.3-.7.7-.3zm0-4.02l.3.7-.3.7-.7.3-.7-.3-.3-.7.3-.7.7-.3zm0-4.02l.3.7-.3.7-.7.3-.7-.3-.3-.7.3-.7.7-.3zm0-4.02l.3.7-.3.7-.7.3-.7-.3-.3-.7.3-.7.7-.3zm0-4.02l.3.7-.3.72-.7.3-.7-.3-.3-.7.3-.72.7-.3zm0-4.02l.3.7-.3.72-.7.3-.7-.3-.3-.7.3-.72.7-.3zm0-4.02l.3.7-.3.72-.7.3-.7-.3-.3-.7.3-.72.7-.3zm0-4.02l.3.7-.3.72-.7.3-.7-.3-.3-.7.3-.72.7-.3zm0-4.02l.3.7-.3.72-.7.3-.7-.3-.3-.7.3-.72.7-.3zm0-4l.3.7-.3.7-.7.3-.7-.3-.3-.7.3-.72.7-.3zm0-4.03l.3.7-.3.72-.7.3-.7-.3-.3-.7.3-.7.7-.3zm0-4l.3.7-.3.7-.7.3-.7-.3-.3-.7.3-.7.7-.3zm0-4.03l.3.7-.3.7-.7.3-.7-.3-.3-.7.3-.7.7-.3zm0-4.02l.3.7-.3.7-.7.3-.7-.3-.3-.7.3-.7.7-.3zm0-4.02l.3.7-.3.72-.7.3-.7-.3-.3-.7.3-.72.7-.3zm0-4.02l.3.72-.3.7-.7.3-.7-.3-.3-.7.3-.7.7-.3zm0-4l.3.7-.3.7-.7.3-.7-.3-.3-.7.3-.7.7-.3zm0-4.03l.3.7-.3.72-.7.28-.7-.3-.3-.7.3-.7.7-.3zm0-4l.3.7-.3.7-.7.3-.7-.3-.3-.7.3-.72.7-.3zm0-4.03l.3.7-.3.7-.7.3-.7-.3-.3-.7.3-.7.7-.3zm0-4.02l.3.7-.3.7-.7.3-.7-.3-.3-.7.3-.7.7-.3zm0-4.02l.3.7-.3.7-.7.3-.7-.3-.3-.7.3-.7.7-.3zm0-4.02l.3.7-.3.7-.7.3-.7-.3-.3-.7.3-.7.7-.3zm0-4.02l.3.7-.3.7-.7.3-.7-.3-.3-.7.3-.7.7-.3zm0-4.02l.3.7-.3.7-.7.3-.7-.3-.3-.7.3-.7.7-.3zm0-4.02l.3.7-.3.72-.7.3-.7-.3-.3-.7.3-.72.7-.3zm0-4.02l.3.7-.3.72-.7.3-.7-.3-.3-.7.3-.72.7-.3zm0-4.02l.3.7-.3.72-.7.3-.7-.3-.3-.7.3-.72.7-.3zm0-4l.3.7-.3.7-.7.3-.7-.3-.3-.7.3-.72.7-.3zm0-4.03l.3.7-.3.7-.7.3-.7-.3-.3-.7.3-.7.7-.3zm0-4.02l.3.7-.3.7-.7.3-.7-.3-.3-.7.3-.7.7-.3zm0-4.02l.3.72-.3.7-.7.3-.7-.3-.3-.7.3-.7.7-.3zm0-4l.3.7-.3.7-.7.3-.7-.3-.3-.7.3-.7.7-.3zm0-4.03l.3.7-.3.72-.7.28-.7-.3-.3-.7.3-.7.7-.3zm0-4.02l.3.7-.3.72-.7.3-.7-.3-.3-.7.3-.72.7-.3zm0-4.02l.3.7-.3.72-.7.3-.7-.3-.3-.7.3-.72.7-.3zm0-4.02l.3.72-.3.7-.7.3-.7-.3-.3-.7.3-.7.7-.3zm0-4l.3.7-.3.7-.7.3-.7-.3-.3-.7.3-.7.7-.3zm0-4.02l.3.7-.3.7-.7.3-.7-.3-.3-.7.3-.7.7-.3zm0-4.02l.3.7-.3.7-.7.3-.7-.3-.3-.7.3-.7.7-.3zm0-4.02l.3.7-.3.7-.7.3-.7-.3-.3-.7.3-.7.7-.3zm0-4.02l.3.7-.3.7-.7.3-.7-.3-.3-.7.3-.7.7-.3zm0-4.02l.3.7-.3.7-.7.3-.7-.3-.3-.7.3-.7.7-.3zm0-4.02l.3.7-.3.7-.7.3-.7-.3-.3-.7.3-.7.7-.3zm0-24.1l.3.7-.25.6h-1.5l-.25-.6.3-.7.7-.3zm0-4.03l.3.7-.3.7-.7.3-.7-.3-.3-.7.3-.7.7-.3zm0-4.02l.3.7-.3.7-.7.3-.7-.3-.3-.7.3-.7.7-.3zm0-4.02l.3.72-.3.7-.7.3-.7-.3-.3-.7.3-.7.7-.3zm0-4l.3.7-.3.7-.7.3-.7-.3-.3-.7.3-.7.7-.3zm0-4.03l.3.7-.3.72-.7.28-.7-.3-.3-.7.3-.7.7-.3zm0-4.02l.3.7-.3.72-.7.3-.7-.3-.3-.7.3-.72.7-.3zm0-4.02l.3.7-.3.72-.7.3-.7-.3-.3-.7.3-.72.7-.3zm0-4l.3.7-.3.7-.7.3-.7-.3-.3-.7.3-.72.7-.28zm0-4.03l.3.7-.3.7-.7.3-.7-.3-.3-.7.3-.7.7-.3zm0-4.02l.3.7-.3.7-.7.3-.7-.3-.3-.7.3-.7.7-.3zm0-4.02l.3.7-.3.7-.7.3-.7-.3-.3-.7.3-.7.7-.3zm0-4.02l.3.7-.3.7-.7.3-.7-.3-.3-.7.3-.7.7-.3zm0-4.02l.3.7-.3.7-.7.3-.7-.3-.3-.7.3-.7.7-.3zm0-4.02l.3.7-.3.72-.7.3-.7-.3-.3-.7.3-.72.7-.3zm0-4.02l.3.7-.3.72-.7.3-.7-.3-.3-.7.3-.72.7-.3zm0-4.02l.3.7-.3.72-.7.3-.7-.3-.3-.7.3-.72.7-.3zm0-4l.3.7-.3.7-.7.3-.7-.3-.3-.7.3-.7.7-.3zm0-4.03l.3.7-.3.7-.7.3-.7-.3-.3-.7.3-.7.7-.3zm0-4.02l.3.7-.3.72-.7.3-.7-.3-.3-.7.3-.7.7-.3zm0-4l.3.7-.3.7-.7.3-.7-.3-.3-.7.3-.7.7-.3zm0-4.03l.3.7-.3.7-.7.3-.7-.3-.3-.7.3-.7.7-.3zm0-4.02l.3.7-.3.7-.7.3-.7-.3-.3-.7.3-.7.7-.3zm0-4.02l.3.7-.3.72-.7.3-.7-.3-.3-.7.3-.72.7-.3zm0-4.02l.3.72-.3.7-.7.3-.7-.3-.3-.7.3-.7.7-.3zm0-4l.3.7-.3.7-.7.3-.7-.3-.3-.7.3-.7.7-.3z" fill="#3a414a"/><path d="M950.98 762.53H949v-1.03H951z" fill="#3a414a"/><path stroke="#3a414a" stroke-width=".05" fill="#3a414a"/><path d="M950 1095.26l-4.63-14.26h9.26z" fill="#3a414a"/><path d="M950 1098.42l-5.98-18.4h11.96zm-3.3-16.45l3.3 10.14 3.3-10.13z" stroke="#3a414a" stroke-width=".05" fill="#3a414a"/><use xlink:href="#M" transform="matrix(1,0,0,1,900.78125,863.5735616911459) translate(0.005000000000002558 17.22222222222222)"/><use xlink:href="#N" transform="matrix(1,0,0,1,900.78125,863.5735616911459) translate(30.925138888888895 17.22222222222222)"/><path d="M1372.24 1267.78v-15.52h15.52v15.52h-15.52zm17.28-19.12h-19.04c-1.04 0-1.84.8-1.84 1.84v19.04c0 1.04.8 1.84 1.84 1.84h19.04c1.04 0 1.84-.8 1.84-1.84v-19.04c0-1.04-.8-1.84-1.84-1.84zm11.36 19.12v-15.52h15.52v15.52h-15.52zm17.28-19.12h-19.04c-1.04 0-1.84.8-1.84 1.84v19.04c0 1.04.8 1.84 1.84 1.84h19.04c1.04 0 1.84-.8 1.84-1.84v-19.04c0-1.04-.8-1.84-1.84-1.84zm-74.56 19.12v-15.52h15.52v15.52h-15.52zm17.28-19.12h-19.04c-1.04 0-1.84.8-1.84 1.84v19.04c0 1.04.8 1.84 1.84 1.84h19.04c1.04 0 1.84-.8 1.84-1.84v-19.04c0-1.04-.8-1.84-1.84-1.84zm11.36-9.52v-15.52h15.52v15.52h-15.52zm17.28-19.12h-19.04c-1.04 0-1.84.8-1.84 1.84v19.04c0 1.04.8 1.84 1.84 1.84h19.04c1.04 0 1.84-.8 1.84-1.84v-19.04c0-1.04-.8-1.84-1.84-1.84zm11.36 19.12v-15.52h15.52v15.52h-15.52zm17.28-19.12h-19.04c-1.04 0-1.84.8-1.84 1.84v19.04c0 1.04.8 1.84 1.84 1.84h19.04c1.04 0 1.84-.8 1.84-1.84v-19.04c0-1.04-.8-1.84-1.84-1.84zm-74.56 19.12v-15.52h15.52v15.52h-15.52zm17.28-19.12h-19.04c-1.04 0-1.84.8-1.84 1.84v19.04c0 1.04.8 1.84 1.84 1.84h19.04c1.04 0 1.84-.8 1.84-1.84v-19.04c0-1.04-.8-1.84-1.84-1.84zm11.36-9.52v-15.52h15.52v15.52h-15.52zm17.28-19.12h-19.04c-1.04 0-1.84.8-1.84 1.84v19.04c0 1.04.8 1.84 1.84 1.84h19.04c1.04 0 1.84-.8 1.84-1.84v-19.04c0-1.04-.8-1.84-1.84-1.84zm11.36 19.12v-15.52h15.52v15.52h-15.52zm17.28-19.12h-19.04c-1.04 0-1.84.8-1.84 1.84v19.04c0 1.04.8 1.84 1.84 1.84h19.04c1.04 0 1.84-.8 1.84-1.84v-19.04c0-1.04-.8-1.84-1.84-1.84zm-74.56 19.12v-15.52h15.52v15.52h-15.52zm17.28-19.12h-19.04c-1.04 0-1.84.8-1.84 1.84v19.04c0 1.04.8 1.84 1.84 1.84h19.04c1.04 0 1.84-.8 1.84-1.84v-19.04c0-1.04-.8-1.84-1.84-1.84z" stroke="#000" stroke-opacity="0" fill="#e7157b"/><g><use xlink:href="#O" transform="matrix(1,0,0,1,1260.0000000000002,1280.3793103448272) translate(40.39496527777777 17.22222222222222)"/><use xlink:href="#v" transform="matrix(1,0,0,1,1260.0000000000002,1280.3793103448272) translate(124.98697916666667 17.22222222222222)"/><use xlink:href="#P" transform="matrix(1,0,0,1,1260.0000000000002,1280.3793103448272) translate(136.39322916666669 17.22222222222222)"/><use xlink:href="#Q" transform="matrix(1,0,0,1,1260.0000000000002,1280.3793103448272) translate(75.79861111111111 43.034722222222214)"/></g><path d="M1202 1231.38h121.62" stroke="#3a414a" fill="none"/><path d="M1202 1231.85h-.5v-.95h.5z" stroke="#3a414a" stroke-width=".05" fill="#3a414a"/><path d="M1338.38 1231.38l-14.26 4.63v-9.26z" stroke="#3a414a" fill="#3a414a"/><path d="M1380.7 1189.67l.3.7-.3.72-.7.28-.7-.3-.3-.7.3-.7.7-.3zm0-4l.3.7-.3.72-.7.28-.7-.3-.3-.7.3-.7.7-.3zm0-4l.3.7-.3.72-.7.28-.7-.3-.3-.7.3-.7.7-.3zm0-4l.3.7-.3.72-.7.28-.7-.3-.3-.7.3-.7.7-.3zm0-4l.3.7-.3.72-.7.28-.7-.3-.3-.7.3-.7.7-.3zm0-4l.3.7-.3.72-.7.28-.7-.3-.3-.7.3-.7.7-.3zm0-4l.3.7-.3.72-.7.3-.7-.3-.3-.7.3-.72.7-.3zm0-4l.3.72-.3.7-.7.3-.7-.3-.3-.7.3-.72.7-.3zm0-4l.3.72-.3.7-.7.3-.7-.3-.3-.7.3-.72.7-.3zm0-4l.3.72-.3.7-.7.3-.7-.3-.3-.7.3-.72.7-.3zm0-4l.3.72-.3.7-.7.3-.7-.3-.3-.7.3-.72.7-.3zm0-4l.3.72-.3.7-.7.3-.7-.3-.3-.7.3-.72.7-.3zm0-4l.3.72-.3.7-.7.3-.7-.3-.3-.7.3-.72.7-.3zm0-4l.3.72-.3.7-.7.3-.7-.3-.3-.7.3-.72.7-.3zm0-3.98l.3.7-.3.7-.7.3-.7-.3-.3-.7.3-.7.7-.3zm0-4l.3.7-.3.7-.7.3-.7-.3-.3-.7.3-.7.7-.3zm0-4l.3.7-.3.7-.7.3-.7-.3-.3-.7.3-.7.7-.3zm0-4l.3.7-.3.7-.7.3-.7-.3-.3-.7.3-.7.7-.3zm0-4l.3.7-.3.7-.7.3-.7-.3-.3-.7.3-.7.7-.3zm0-4l.3.7-.3.7-.7.3-.7-.3-.3-.7.3-.7.7-.3zm0-4l.3.7-.3.7-.7.3-.7-.3-.3-.7.3-.7.7-.3zm0-4l.3.7-.3.7-.7.3-.7-.3-.3-.7.3-.7.7-.3zm0-4l.3.7-.3.7-.7.3-.7-.3-.3-.7.3-.7.7-.3zm0-4l.3.7-.3.7-.7.3-.7-.3-.3-.7.3-.7.7-.3zm0-4l.3.7-.3.7-.7.3-.7-.3-.3-.7.3-.7.7-.3zm0-4l.3.7-.3.7-.7.3-.7-.3-.3-.7.3-.7.7-.3zm0-4l.3.7-.3.7-.7.3-.7-.3-.3-.7.3-.7.7-.3zm0-4l.3.7-.3.7-.7.3-.7-.3-.3-.7.3-.7.7-.3zm0-4l.3.7-.3.7-.7.3-.7-.3-.3-.7.3-.7.7-.3zm0-4l.3.7-.3.7-.7.3-.7-.3-.3-.7.3-.7.7-.3zm0-4l.3.7-.3.72-.7.3-.7-.3-.3-.7.3-.72.7-.3zm0-4l.3.7-.3.72-.7.3-.7-.3-.3-.7.3-.72.7-.3zm0-4l.3.7-.3.72-.7.3-.7-.3-.3-.7.3-.72.7-.3zm0-4l.3.7-.3.72-.7.3-.7-.3-.3-.7.3-.72.7-.3zm0-4l.3.7-.3.72-.7.3-.7-.3-.3-.7.3-.7.7-.3zm0-4l.3.7-.3.72-.7.3-.7-.3-.3-.7.3-.7.7-.3zm0-4l.3.7-.3.72-.7.3-.7-.3-.3-.7.3-.7.7-.3zm0-4l.3.72-.3.7-.7.3-.7-.3-.3-.7.3-.7.7-.3zm0-4l.3.72-.3.7-.7.3-.7-.3-.3-.7.3-.7.7-.3zm0-4l.3.72-.3.7-.7.3-.7-.3-.3-.7.3-.7.7-.3zm0-4l.3.72-.3.7-.7.3-.7-.3-.3-.7.3-.7.7-.3zm0-4l.3.72-.3.7-.7.3-.7-.3-.3-.7.3-.7.7-.3zm0-4l.3.72-.3.7-.7.3-.7-.3-.3-.7.3-.7.7-.3zm0-4l.3.72-.3.7-.7.3-.7-.3-.3-.7.3-.7.7-.3zm0-3.98l.3.7-.3.7-.7.3-.7-.3-.3-.7.3-.7.7-.3zm0-4l.3.7-.3.7-.7.3-.7-.3-.3-.7.3-.7.7-.3zm0-4l.3.7-.3.7-.7.3-.7-.3-.3-.7.3-.7.7-.3zm0-4l.3.7-.3.7-.7.3-.7-.3-.3-.7.3-.7.7-.3zm0-4l.3.7-.3.7-.7.3-.7-.3-.3-.7.3-.7.7-.3zm0-4l.3.7-.3.72-.7.3-.7-.3-.3-.7.3-.72.7-.3zm0-4l.3.7-.3.72-.7.3-.7-.3-.3-.7.3-.72.7-.3zm0-4l.3.7-.3.72-.7.3-.7-.3-.3-.7.3-.72.7-.3zm0-4l.3.7-.3.72-.7.3-.7-.3-.3-.7.3-.72.7-.3zm0-4l.3.7-.3.72-.7.3-.7-.3-.3-.7.3-.72.7-.3zm0-4l.3.7-.3.72-.7.3-.7-.3-.3-.7.3-.7.7-.3zm0-4l.3.7-.3.72-.7.3-.7-.3-.3-.7.3-.7.7-.3zm0-4l.3.7-.3.72-.7.3-.7-.3-.3-.7.3-.7.7-.3zm0-4l.3.72-.3.7-.7.3-.7-.3-.3-.7.3-.7.7-.3zm0-4l.3.72-.3.7-.7.3-.7-.3-.3-.7.3-.7.7-.3zm0-4l.3.72-.3.7-.7.3-.7-.3-.3-.7.3-.7.7-.3zm0-4l.3.72-.3.7-.7.3-.7-.3-.3-.7.3-.7.7-.3zm0-4l.3.72-.3.7-.7.3-.7-.3-.3-.7.3-.7.7-.3zm0-4l.3.72-.3.7-.7.3-.7-.3-.3-.7.3-.7.7-.3zm0-4l.3.72-.3.7-.7.3-.7-.3-.3-.7.3-.7.7-.3zm0-3.98l.3.7-.3.7-.7.3-.7-.3-.3-.7.3-.7.7-.3zm0-4l.3.7-.3.7-.7.3-.7-.3-.3-.7.3-.7.7-.3zm0-4l.3.7-.3.7-.7.3-.7-.3-.3-.7.3-.7.7-.3zm0-4l.3.7-.3.7-.7.3-.7-.3-.3-.7.3-.7.7-.3zm0-4l.3.7-.3.7-.7.3-.7-.3-.3-.7.3-.7.7-.3zm0-4l.3.7-.3.7-.7.3-.7-.3-.3-.7.3-.7.7-.3zm0-4l.3.7-.3.72-.7.3-.7-.3-.3-.7.3-.72.7-.3zm0-4l.3.7-.3.72-.7.3-.7-.3-.3-.7.3-.72.7-.3zm0-4l.3.7-.3.72-.7.3-.7-.3-.3-.7.3-.72.7-.3zm0-4l.3.7-.3.72-.7.3-.7-.3-.3-.7.3-.72.7-.3zm0-4l.3.7-.3.72-.7.3-.7-.3-.3-.7.3-.7.7-.3zm0-4l.3.7-.3.72-.7.3-.7-.3-.3-.7.3-.7.7-.3zm0-4l.3.72-.3.7-.7.3-.7-.3-.3-.7.3-.7.7-.3zm0-4l.3.72-.3.7-.7.3-.7-.3-.3-.7.3-.7.7-.3zm0-4l.3.72-.3.7-.7.3-.7-.3-.3-.7.3-.7.7-.3zm0-4l.3.72-.3.7-.7.3-.7-.3-.3-.7.3-.7.7-.3zm0-4l.3.72-.3.7-.7.3-.7-.3-.3-.7.3-.7.7-.3zm0-4l.3.72-.3.7-.7.3-.7-.3-.3-.7.3-.7.7-.3zm0-4l.3.72-.3.7-.7.3-.7-.3-.3-.7.3-.7.7-.3zm0-4l.3.72-.3.7-.7.3-.7-.3-.3-.7.3-.7.7-.3zm0-3.98l.3.7-.3.7-.7.3-.7-.3-.3-.7.3-.7.7-.3zm0-4l.3.7-.3.7-.7.3-.7-.3-.3-.7.3-.7.7-.3zm0-4l.3.7-.3.7-.7.3-.7-.3-.3-.7.3-.7.7-.3zm0-4l.3.7-.3.7-.7.3-.7-.3-.3-.7.3-.7.7-.3zm0-4l.3.7-.3.7-.7.3-.7-.3-.3-.7.3-.7.7-.3zm0-4l.3.7-.3.7-.7.3-.7-.3-.3-.7.3-.7.7-.3zm0-4l.3.7-.3.72-.7.3-.7-.3-.3-.7.3-.72.7-.3zm0-4l.3.7-.3.72-.7.3-.7-.3-.3-.7.3-.72.7-.3zm0-4l.3.7-.3.72-.7.3-.7-.3-.3-.7.3-.72.7-.3zm0-4l.3.7-.3.72-.7.3-.7-.3-.3-.7.3-.72.7-.3zm0-4l.3.7-.3.72-.7.3-.7-.3-.3-.7.3-.7.7-.3zm0-4l.3.7-.3.72-.7.3-.7-.3-.3-.7.3-.7.7-.3zm0-4l.3.72-.3.7-.7.3-.7-.3-.3-.7.3-.7.7-.3zm0-4l.3.72-.3.7-.7.3-.7-.3-.3-.7.3-.7.7-.3zm0-4l.3.72-.3.7-.7.3-.7-.3-.3-.7.3-.7.7-.3zm0-4l.3.72-.3.7-.7.3-.7-.3-.3-.7.3-.7.7-.3zm0-4l.3.72-.3.7-.7.3-.7-.3-.3-.7.3-.7.7-.3zm0-4l.3.72-.3.7-.7.3-.7-.3-.3-.7.3-.7.7-.3zm0-4l.3.72-.3.7-.7.3-.7-.3-.3-.7.3-.7.7-.3zm0-4l.3.72-.3.7-.7.3-.7-.3-.3-.7.3-.7.7-.3zm0-3.98l.3.7-.3.7-.7.3-.7-.3-.3-.7.3-.7.7-.3zm0-4l.3.7-.3.7-.7.3-.7-.3-.3-.7.3-.7.7-.3zm0-4l.3.7-.3.7-.7.3-.7-.3-.3-.7.3-.7.7-.3zm0-4l.3.7-.3.7-.7.3-.7-.3-.3-.7.3-.7.7-.3zm0-4l.3.7-.3.7-.7.3-.7-.3-.3-.7.3-.7.7-.3zm0-4l.3.7-.3.72-.7.3-.7-.3-.3-.7.3-.72.7-.3zm0-4l.3.7-.3.72-.7.3-.7-.3-.3-.7.3-.72.7-.3zm0-4l.3.7-.3.72-.7.3-.7-.3-.3-.7.3-.72.7-.3zm0-4l.3.7-.3.72-.7.3-.7-.3-.3-.7.3-.72.7-.3zm.3-3.3l-.3.72-.7.3-.7-.3-.3-.7.28-.7h1.44z" fill="#3a414a"/><path d="M1380.97 1191.38h-1.94v-1.03h1.94z" fill="#3a414a"/><path stroke="#3a414a" stroke-width=".05" fill="#3a414a"/><path d="M1382.2 690h-4.4l2.2-6.76z" fill="#3a414a"/><path d="M1383.22 690h-2.05l-1.17-3.6-1.17 3.6h-2.05l3.22-9.92z" stroke="#3a414a" stroke-width=".05" fill="#3a414a"/><path d="M96.4 519.52c9.76 0 17.76-8 17.76-17.92 0-9.92-8-18-17.76-18-9.84 0-17.84 8.08-17.84 18s8 17.92 17.84 17.92zM63.68 556.4h43.6v3.6H61.84c-1.04 0-1.84-.8-1.84-1.84 0-17.76 11.92-32.72 27.84-36.72-7.6-3.36-12.96-10.96-12.96-19.84 0-11.92 9.68-21.6 21.52-21.6s21.44 9.68 21.44 21.6c0 8.88-5.36 16.48-12.96 19.84 1.68.4 3.28.88 4.88 1.52.32.16.64.32.96.4l-1.44 3.36c-.32-.16-.56-.24-.88-.4-3.84-1.52-7.92-2.32-12-2.32-17.52 0-31.84 14.32-32.72 32.4zm72.72-13.68c0-7.52-6.16-13.6-13.68-13.6s-13.6 6.08-13.6 13.6 6.08 13.68 13.6 13.68 13.68-6.16 13.68-13.68zm3.6 0c0 9.52-7.76 17.28-17.28 17.28-9.52 0-17.28-7.76-17.28-17.28 0-9.52 7.76-17.28 17.28-17.28 9.52 0 17.28 7.76 17.28 17.28zm-10.4-6.56l2.56 2.56-10.88 10.88c-.32.4-.8.56-1.28.56s-.96-.16-1.28-.56l-5.44-5.44 2.56-2.56 4.16 4.16 9.6-9.6z" stroke="#000" stroke-opacity="0" fill="#232f3e"/><g><use xlink:href="#R" transform="matrix(1,0,0,1,-20.000000000000114,569.0000000000001) translate(81.17708333333334 21.52777777777778)"/></g><path d="M96.4 1159.52c9.76 0 17.76-8 17.76-17.92 0-9.92-8-18-17.76-18-9.84 0-17.84 8.08-17.84 18s8 17.92 17.84 17.92zm-32.72 36.88h43.6v3.6H61.84c-1.04 0-1.84-.8-1.84-1.84 0-17.76 11.92-32.72 27.84-36.72-7.6-3.36-12.96-10.96-12.96-19.84 0-11.92 9.68-21.6 21.52-21.6s21.44 9.68 21.44 21.6c0 8.88-5.36 16.48-12.96 19.84 1.68.4 3.28.88 4.88 1.52.32.16.64.32.96.4l-1.44 3.36c-.32-.16-.56-.24-.88-.4-3.84-1.52-7.92-2.32-12-2.32-17.52 0-31.84 14.32-32.72 32.4zm72.72-13.68c0-7.52-6.16-13.6-13.68-13.6s-13.6 6.08-13.6 13.6 6.08 13.68 13.6 13.68 13.68-6.16 13.68-13.68zm3.6 0c0 9.52-7.76 17.28-17.28 17.28-9.52 0-17.28-7.76-17.28-17.28 0-9.52 7.76-17.28 17.28-17.28 9.52 0 17.28 7.76 17.28 17.28zm-10.4-6.56l2.56 2.56-10.88 10.88c-.32.4-.8.56-1.28.56s-.96-.16-1.28-.56l-5.44-5.44 2.56-2.56 4.16 4.16 9.6-9.6z" stroke="#000" stroke-opacity="0" fill="#232f3e"/><g><use xlink:href="#S" transform="matrix(1,0,0,1,-20.000000000000114,1209) translate(54.9021267361111 21.52777777777778)"/></g><path d="M100.47 693.98l.07.88.2.85.34.8.45.75.56.66.65.57.74.45.8.33.84.2.88.07h99.3v.96H106l-1-.08-.98-.24-.94-.4-.87-.52-.78-.66-.66-.77-.53-.86-.4-.94-.23-1-.07-.98V592h.94zm383.15 5.54v.96H257.8v-.96zM100.48 571h-.95v-10.5h.94z" stroke="#3a414a" stroke-width=".05" fill="#3a414a"/><path d="M100.47 560.5h-.94v-.5h.94z" fill="#3a414a"/><path stroke="#3a414a" stroke-width=".05" fill="#3a414a"/><path d="M498.38 700l-14.26 4.63v-9.26z" fill="#3a414a"/><path d="M499.92 700l-16.28 5.3v-10.6zm-15.33 3.98l12.25-3.98-12.26-3.98zM205.33 700.48h-99.3l-.9.06-.84.2-.8.34-.75.45-.66.56-.57.65-.45.74-.33.8-.2.84-.08.88v413.48h-.94V705.98l.07-1 .24-.98.4-.94.52-.87.66-.78.77-.66.86-.53.94-.4 1-.23.98-.08h99.35zm278.3 0H257.78v-.96H483.6z" stroke="#3a414a" stroke-width=".05" fill="#3a414a"/><path d="M100.47 1120.47l-.94-.1v-.88h.94z" fill="#3a414a"/><path stroke="#3a414a" stroke-width=".05" fill="#3a414a"/><path d="M498.38 700l-14.26 4.63v-9.26z" fill="#3a414a"/><path d="M499.92 700l-16.28 5.3v-10.6zm-15.33 3.98l12.25-3.98-12.26-3.98z" stroke="#3a414a" stroke-width=".05" fill="#3a414a"/><g><use xlink:href="#T" transform="matrix(1,0,0,1,205.3326092779378,689.2447916666666) translate(0.004999999999999005 17.22222222222222)"/><use xlink:href="#U" transform="matrix(1,0,0,1,205.3326092779378,689.2447916666666) translate(36.40256944444444 17.22222222222222)"/></g><path d="M1340 420h80v80h-80z" fill="#7aa116"/><path d="M1390.4 475.86c-2.96 0-5.37-2.4-5.37-5.4 0-2.95 2.4-5.4 5.38-5.4s5.4 2.45 5.4 5.4c0 3-2.42 5.4-5.4 5.4zm0-12.8c-4.05 0-7.4 3.32-7.4 7.4 0 4.1 3.35 7.43 7.4 7.43 4.08 0 7.43-3.33 7.43-7.45 0-4.07-3.35-7.38-7.42-7.38zm15.3 21.14c-.4.43-1.16.5-1.6.06l-6-5.4c.56-.5 1.1-1.08 1.55-1.72l6 5.4c.43.43.48 1.18.04 1.66zM1381 470.45c0-5.2 4.23-9.42 9.4-9.42 5.16 0 9.4 4.23 9.4 9.42 0 5.2-4.24 9.42-9.4 9.42-5.17 0-9.4-4.23-9.4-9.42zm25.94 10.65l-6.27-5.67c.7-1.5 1.14-3.2 1.14-4.98 0-6.26-5.1-11.4-11.43-11.4-6.25 0-11.36 5.14-11.36 11.4 0 6.32 5.1 11.45 11.37 11.45 2.27 0 4.36-.7 6.1-1.82l6.28 5.68c.55.53 1.32.8 2.1.8.8 0 1.7-.38 2.3-1.02 1.15-1.28 1.1-3.3-.22-4.44zm-47.93-20.18c1.1-.2 2.1-.9 2.8-1.76l5.6 4c-.27.6-.38 1.24-.38 1.88 0 2.36 1.76 4.4 3.96 4.93v14.07h-11.97v-23.12zm-4-4.87c0-1.55 1.47-3 3-3 1.55 0 2.98 1.45 2.98 3 0 1.56-1.42 3-2.96 3s-3.02-1.44-3.02-3zm16.97 6c1.6 0 3.02 1.44 3.02 3 0 1.55-1.42 3-3.02 3-1.54 0-2.97-1.45-2.97-3 0-1.56 1.43-3 2.97-3zm14.02-19c1.54 0 3.02 1.44 3.02 3 0 1.55-1.48 3-3.02 3s-3.03-1.45-3.03-3c0-1.56 1.48-3 3.02-3zm15-6c1.54 0 2.97 1.45 2.97 3s-1.44 3-2.98 3-3.02-1.45-3.02-3 1.48-3 3.02-3zm-27.97 32.92c2.2-.54 3.95-2.57 3.95-4.93 0-.96-.33-1.92-.88-2.73l8.52-11.5c.1.06.28.12.4.12v6.15h1.97v-6.15c2.26-.5 4.02-2.57 4.02-4.88 0-.1-.06-.26-.06-.37l5.72-3.26c.7 1.24 1.92 2.2 3.35 2.52v15.15h1.98v-15.15c2.2-.48 4.02-2.57 4.02-4.87 0-2.35-1.8-4.4-4-4.92v-2.1h-2v2.1c-2.24.53-4 2.57-4 4.92 0 .1 0 .27.05.38l-5.7 3.26c-.73-1.24-1.94-2.2-3.36-2.52v-8.14h-1.97v8.13c-2.26.5-4 2.57-4 4.88 0 1.5.75 2.88 1.85 3.8l-8.2 11.02c-.48-.32-1.03-.6-1.63-.7v-27.13H1371v27.13c-.92.22-1.75.7-2.4 1.34l-5.78-4.1c.1-.44.22-.86.22-1.35 0-2.35-1.8-4.38-4-4.92v-18.1h-2v18.1c-2.24.54-4 2.57-4 4.92 0 2.3 1.76 4.4 4 4.87v25.16h34.97v-2.03h-18.95v-14.08z" stroke="#000" stroke-opacity="0" fill="#fff"/><g><use xlink:href="#A" transform="matrix(1,0,0,1,1260,509) translate(77.98611111111111 17.22222222222222)"/><use xlink:href="#V" transform="matrix(1,0,0,1,1260,509) translate(123.16840277777777 17.22222222222222)"/><use xlink:href="#W" transform="matrix(1,0,0,1,1260,509) translate(45.92447916666666 43.034722222222214)"/><use xlink:href="#X" transform="matrix(1,0,0,1,1260,509) translate(121.1328125 43.034722222222214)"/></g><path d="M1380.47 599.5h-.94v-41.7h.94z" stroke="#3a414a" stroke-width=".05" fill="#3a414a"/><path fill="#3a414a"/><path stroke="#3a414a" stroke-width=".05" fill="#3a414a"/><path d="M1383.05 511h-6.1l3.05-9.38z" fill="#3a414a"/><path d="M1383.55 511h-1l-2.55-7.85-2.55 7.85h-1l3.55-10.92z" stroke="#3a414a" stroke-width=".05" fill="#3a414a"/><defs><path d="M52 0l541-1490h220L1361 0h-200l-149-416H398L254 0H52zm404-582h497c-103-290-145-390-251-756-108 377-145 460-246 756" id="Y"/><path d="M158 0v-1118h175l1 205c55-151 181-225 313-225 147 0 245 90 285 228 53-141 190-228 352-228 194 0 352 125 352 384V0h-181v-749c0-161-105-225-225-225-151 0-243 103-243 244V0H807v-767c0-124-93-207-219-207-131 0-250 92-250 270V0H158" id="Z"/><path d="M471 26C259 26 90-98 90-318c0-256 228-303 435-329 202-27 287-16 287-108 0-139-79-219-234-219-161 0-248 86-283 164l-173-57c86-203 278-265 451-265 150 0 419 46 419 395V0H815v-152h-12C765-73 660 26 471 26zm31-159c199 0 310-134 310-271v-155c-30 35-226 55-295 64-131 17-246 59-246 186 0 116 97 176 231 176" id="aa"/><path d="M126 0v-134l627-806v-11H146v-167h839v143L376-178v11h629V0H126" id="ab"/><path d="M613 24c-304 0-509-231-509-576 0-350 205-580 509-580 305 0 511 230 511 580 0 345-206 576-511 576zm0-161c226 0 329-195 329-415 0-222-103-419-329-419-223 0-326 196-326 419 0 220 103 415 326 415" id="ac"/><path d="M338-670V0H158v-1118h173l1 207c72-158 192-221 342-221 226 0 378 139 378 422V0H872v-695c0-172-96-275-252-275-161 0-282 109-282 300" id="ad"/><g id="a"><use transform="matrix(0.010850694444444444,0,0,0.010850694444444444,0,0)" xlink:href="#Y"/><use transform="matrix(0.010850694444444444,0,0,0.010850694444444444,15.33203125,0)" xlink:href="#Z"/><use transform="matrix(0.010850694444444444,0,0,0.010850694444444444,34.79817708333333,0)" xlink:href="#aa"/><use transform="matrix(0.010850694444444444,0,0,0.010850694444444444,47.27647569444444,0)" xlink:href="#ab"/><use transform="matrix(0.010850694444444444,0,0,0.010850694444444444,59.22309027777778,0)" xlink:href="#ac"/><use transform="matrix(0.010850694444444444,0,0,0.010850694444444444,72.54774305555554,0)" xlink:href="#ad"/></g><path d="M783 20c-382 0-661-292-661-764 0-473 279-766 661-766 302 0 548 182 601 489h-190c-42-204-217-313-411-313-268 0-476 208-476 590 0 381 209 588 476 588 195 0 369-110 411-313h190c-52 303-296 489-601 489" id="ae"/><path d="M338-1490V0H158v-1490h180" id="af"/><path d="M537 14c-226 0-379-139-379-422v-710h180v695c0 172 97 275 253 275 160 0 281-109 281-300v-670h181V0H879v-209C806-46 684 14 537 14" id="ag"/><path d="M577 24c-279 0-473-224-473-580 0-354 195-576 474-576 218 0 287 134 324 193h14v-551h180V0H922v-173h-20C865-111 790 24 577 24zm27-161c203 0 314-172 314-421 0-247-108-413-314-413-212 0-317 181-317 413 0 235 108 421 317 421" id="ah"/><g id="b"><use transform="matrix(0.010850694444444444,0,0,0.010850694444444444,0,0)" xlink:href="#ae"/><use transform="matrix(0.010850694444444444,0,0,0.010850694444444444,16.23263888888889,0)" xlink:href="#af"/><use transform="matrix(0.010850694444444444,0,0,0.010850694444444444,21.614583333333336,0)" xlink:href="#ac"/><use transform="matrix(0.010850694444444444,0,0,0.010850694444444444,34.939236111111114,0)" xlink:href="#ag"/><use transform="matrix(0.010850694444444444,0,0,0.010850694444444444,48.07942708333333,0)" xlink:href="#ah"/></g><path d="M657 26c-323 0-524-166-541-416h195c15 169 171 246 346 246 202 0 356-106 356-265 5-203-294-238-475-293-239-73-380-191-380-389 0-252 224-419 512-419 294 0 499 171 508 396H992c-17-145-151-228-328-228-193 0-321 102-321 242 0 156 175 211 284 241l149 41c160 44 422 134 422 412 0 244-197 432-541 432" id="ai"/><path d="M338-670V0H158v-1490h180v566c73-149 190-208 336-208 226 0 379 139 379 422V0H872v-695c0-172-96-275-252-275-161 0-282 109-282 300" id="aj"/><path d="M158 0v-1118h174v172h12c41-113 157-188 290-188 26 0 70 2 91 3v181c-11-2-60-10-108-10-161 0-279 109-279 260V0H158" id="ak"/><path d="M628 24c-324 0-524-230-524-574 0-343 198-582 503-582 237 0 487 146 487 559v75H286c9 234 145 362 343 362 132 0 231-58 273-172l174 48C1024-91 857 24 628 24zM287-650h624c-17-190-120-322-304-322-192 0-309 151-320 322" id="al"/><g id="c"><use transform="matrix(0.010850694444444444,0,0,0.010850694444444444,0,0)" xlink:href="#ai"/><use transform="matrix(0.010850694444444444,0,0,0.010850694444444444,14.2578125,0)" xlink:href="#aj"/><use transform="matrix(0.010850694444444444,0,0,0.010850694444444444,27.39800347222222,0)" xlink:href="#aa"/><use transform="matrix(0.010850694444444444,0,0,0.010850694444444444,39.87630208333333,0)" xlink:href="#ak"/><use transform="matrix(0.010850694444444444,0,0,0.010850694444444444,47.87326388888888,0)" xlink:href="#al"/><use transform="matrix(0.010850694444444444,0,0,0.010850694444444444,60.82899305555554,0)" xlink:href="#ah"/></g><path d="M481 0L54-1118h197c107 314 236 620 325 951 87-331 217-637 324-951h197L670 0H481" id="am"/><path d="M158 0v-1118h180V0H158zm91-1301c-68 0-125-53-125-119s57-119 125-119c69 0 126 53 126 119s-57 119-126 119" id="an"/><path d="M613 24c-304 0-509-231-509-576 0-350 205-580 509-580 216 0 392 114 453 309l-173 49c-33-115-133-197-280-197-223 0-326 196-326 419 0 220 103 415 326 415 150 0 252-85 285-206l172 49C1010-95 832 24 613 24" id="ao"/><path d="M538 24C308 24 148-78 108-271l171-41c32 123 123 178 257 178 156 0 256-77 256-169 0-77-54-128-164-154l-186-44c-203-48-300-148-300-305 0-192 176-326 414-326 230 0 351 112 402 269l-163 42c-31-80-94-158-238-158-133 0-233 69-233 162 0 83 57 129 188 160l169 40c203 48 298 149 298 302 0 196-179 339-441 339" id="ap"/><g id="d"><use transform="matrix(0.010850694444444444,0,0,0.010850694444444444,0,0)" xlink:href="#ai"/><use transform="matrix(0.010850694444444444,0,0,0.010850694444444444,14.2578125,0)" xlink:href="#al"/><use transform="matrix(0.010850694444444444,0,0,0.010850694444444444,27.213541666666664,0)" xlink:href="#ak"/><use transform="matrix(0.010850694444444444,0,0,0.010850694444444444,35.92664930555555,0)" xlink:href="#am"/><use transform="matrix(0.010850694444444444,0,0,0.010850694444444444,48.41579861111111,0)" xlink:href="#an"/><use transform="matrix(0.010850694444444444,0,0,0.010850694444444444,53.79774305555556,0)" xlink:href="#ao"/><use transform="matrix(0.010850694444444444,0,0,0.010850694444444444,66.49305555555554,0)" xlink:href="#al"/><use transform="matrix(0.010850694444444444,0,0,0.010850694444444444,79.44878472222221,0)" xlink:href="#ap"/></g><path d="M218-607c0-325 108-727 258-974h175c-155 315-250 682-250 974 0 265 78 531 250 886H476C306-10 218-315 218-607" id="aq"/><path d="M180 0v-1490h190v644h782v-644h190V0h-190v-678H370V0H180" id="ar"/><path d="M677 24c-213 0-288-135-325-197h-20V0H158v-1490h180v551h14c37-59 106-193 324-193 279 0 474 222 474 576 0 356-194 580-473 580zm-27-161c209 0 317-186 317-421 0-232-105-413-317-413-206 0-314 166-314 413 0 249 111 421 314 421" id="as"/><path d="M96 279C273-86 346-350 346-607c0-292-95-659-250-974h175c150 246 258 650 258 974 0 297-91 602-258 886H96" id="at"/><g id="e"><use transform="matrix(0.010850694444444444,0,0,0.010850694444444444,0,0)" xlink:href="#aq"/><use transform="matrix(0.010850694444444444,0,0,0.010850694444444444,8.10546875,0)" xlink:href="#ar"/><use transform="matrix(0.010850694444444444,0,0,0.010850694444444444,24.620225694444443,0)" xlink:href="#ag"/><use transform="matrix(0.010850694444444444,0,0,0.010850694444444444,37.760416666666664,0)" xlink:href="#as"/><use transform="matrix(0.010850694444444444,0,0,0.010850694444444444,51.11762152777778,0)" xlink:href="#at"/></g><path d="M598-1118v154H368v674c0 100 37 144 132 144 23 0 62-6 92-12L629-6c-37 13-88 20-134 20-193 0-307-107-307-290v-688H20v-154h168v-266h180v266h230" id="au"/><g id="f"><use transform="matrix(0.010850694444444444,0,0,0.010850694444444444,0,0)" xlink:href="#Y"/><use transform="matrix(0.010850694444444444,0,0,0.010850694444444444,15.33203125,0)" xlink:href="#ao"/><use transform="matrix(0.010850694444444444,0,0,0.010850694444444444,28.02734375,0)" xlink:href="#ao"/><use transform="matrix(0.010850694444444444,0,0,0.010850694444444444,40.72265625,0)" xlink:href="#ac"/><use transform="matrix(0.010850694444444444,0,0,0.010850694444444444,54.04730902777778,0)" xlink:href="#ag"/><use transform="matrix(0.010850694444444444,0,0,0.010850694444444444,67.1875,0)" xlink:href="#ad"/><use transform="matrix(0.010850694444444444,0,0,0.010850694444444444,80.31684027777777,0)" xlink:href="#au"/></g><path d="M180 0v-1490h510c348 0 508 194 508 460 0 198-88 351-276 417L1256 0h-220L726-579c-117 2-238 0-356 1V0H180zm190-747h312c235 0 327-108 327-283 0-177-92-293-329-293H370v576" id="av"/><path d="M158 0v-1490h180v865h22l478-493h223L593-638 1096 0H865L456-523 338-412V0H158" id="aw"/><g id="g"><use transform="matrix(0.010850694444444444,0,0,0.010850694444444444,0,0)" xlink:href="#av"/><use transform="matrix(0.010850694444444444,0,0,0.010850694444444444,13.975694444444445,0)" xlink:href="#al"/><use transform="matrix(0.010850694444444444,0,0,0.010850694444444444,26.931423611111104,0)" xlink:href="#ap"/><use transform="matrix(0.010850694444444444,0,0,0.010850694444444444,38.66102430555555,0)" xlink:href="#al"/><use transform="matrix(0.010850694444444444,0,0,0.010850694444444444,51.8337673611111,0)" xlink:href="#aa"/><use transform="matrix(0.010850694444444444,0,0,0.010850694444444444,64.31206597222221,0)" xlink:href="#ak"/><use transform="matrix(0.010850694444444444,0,0,0.010850694444444444,72.30902777777777,0)" xlink:href="#ao"/><use transform="matrix(0.010850694444444444,0,0,0.010850694444444444,85.00434027777777,0)" xlink:href="#aj"/><use transform="matrix(0.010850694444444444,0,0,0.010850694444444444,98.14453125,0)" xlink:href="#ai"/><use transform="matrix(0.010850694444444444,0,0,0.010850694444444444,112.40234375,0)" xlink:href="#au"/><use transform="matrix(0.010850694444444444,0,0,0.010850694444444444,119.78081597222221,0)" xlink:href="#aa"/><use transform="matrix(0.010850694444444444,0,0,0.010850694444444444,132.25911458333331,0)" xlink:href="#ao"/><use transform="matrix(0.010850694444444444,0,0,0.010850694444444444,144.95442708333331,0)" xlink:href="#aw"/></g><path d="M798-719v166H144v-166h654" id="ax"/><use transform="matrix(0.010850694444444444,0,0,0.010850694444444444,0,0)" xlink:href="#ax" id="h"/><g id="i"><use transform="matrix(0.010850694444444444,0,0,0.010850694444444444,0,0)" xlink:href="#ai"/><use transform="matrix(0.010850694444444444,0,0,0.010850694444444444,14.2578125,0)" xlink:href="#al"/><use transform="matrix(0.010850694444444444,0,0,0.010850694444444444,27.213541666666664,0)" xlink:href="#ak"/><use transform="matrix(0.010850694444444444,0,0,0.010850694444444444,35.92664930555555,0)" xlink:href="#am"/><use transform="matrix(0.010850694444444444,0,0,0.010850694444444444,48.41579861111111,0)" xlink:href="#an"/><use transform="matrix(0.010850694444444444,0,0,0.010850694444444444,53.79774305555556,0)" xlink:href="#ao"/><use transform="matrix(0.010850694444444444,0,0,0.010850694444444444,66.49305555555554,0)" xlink:href="#al"/></g><path d="M611 442c-248 0-391-105-460-228l146-94c47 65 117 165 314 165 178 0 307-82 307-266v-224h-17C863-141 792-18 576-18c-268 0-472-195-472-546 0-346 197-568 476-568 216 0 288 133 326 193h17v-179h175V29c0 289-215 413-487 413zm-5-620c203 0 314-146 314-390 0-237-108-403-314-403-213 0-319 180-319 403 0 230 109 390 319 390" id="ay"/><g id="j"><use transform="matrix(0.010850694444444444,0,0,0.010850694444444444,0,0)" xlink:href="#ae"/><use transform="matrix(0.010850694444444444,0,0,0.010850694444444444,16.23263888888889,0)" xlink:href="#aa"/><use transform="matrix(0.010850694444444444,0,0,0.010850694444444444,28.7109375,0)" xlink:href="#au"/><use transform="matrix(0.010850694444444444,0,0,0.010850694444444444,36.08940972222222,0)" xlink:href="#aa"/><use transform="matrix(0.010850694444444444,0,0,0.010850694444444444,48.56770833333333,0)" xlink:href="#af"/><use transform="matrix(0.010850694444444444,0,0,0.010850694444444444,53.94965277777778,0)" xlink:href="#ac"/><use transform="matrix(0.010850694444444444,0,0,0.010850694444444444,67.27430555555554,0)" xlink:href="#ay"/></g><g id="k"><use transform="matrix(0.010850694444444444,0,0,0.010850694444444444,0,0)" xlink:href="#av"/><use transform="matrix(0.010850694444444444,0,0,0.010850694444444444,13.975694444444445,0)" xlink:href="#al"/><use transform="matrix(0.010850694444444444,0,0,0.010850694444444444,26.931423611111104,0)" xlink:href="#ap"/><use transform="matrix(0.010850694444444444,0,0,0.010850694444444444,38.66102430555555,0)" xlink:href="#al"/><use transform="matrix(0.010850694444444444,0,0,0.010850694444444444,51.8337673611111,0)" xlink:href="#aa"/><use transform="matrix(0.010850694444444444,0,0,0.010850694444444444,64.31206597222221,0)" xlink:href="#ak"/><use transform="matrix(0.010850694444444444,0,0,0.010850694444444444,72.30902777777777,0)" xlink:href="#ao"/><use transform="matrix(0.010850694444444444,0,0,0.010850694444444444,85.00434027777777,0)" xlink:href="#aj"/></g><path d="M784 20c-382 0-662-292-662-764 0-473 280-766 662-766s660 293 660 766c0 472-278 764-660 764zm0-176c266 0 475-207 475-588 0-383-209-590-475-590-268 0-477 208-477 590 0 380 209 588 477 588" id="az"/><path d="M763 24c-353 0-583-224-583-531v-983h190v968c0 214 149 370 393 370 243 0 391-156 391-370v-968h190v983c0 307-230 531-581 531" id="aA"/><g id="l"><use transform="matrix(0.010850694444444444,0,0,0.010850694444444444,0,0)" xlink:href="#az"/><use transform="matrix(0.010850694444444444,0,0,0.010850694444444444,16.9921875,0)" xlink:href="#aA"/></g><g id="m"><use transform="matrix(0.010850694444444444,0,0,0.010850694444444444,0,0)" xlink:href="#av"/><use transform="matrix(0.010850694444444444,0,0,0.010850694444444444,13.975694444444445,0)" xlink:href="#al"/><use transform="matrix(0.010850694444444444,0,0,0.010850694444444444,26.931423611111104,0)" xlink:href="#ap"/><use transform="matrix(0.010850694444444444,0,0,0.010850694444444444,38.66102430555555,0)" xlink:href="#al"/><use transform="matrix(0.010850694444444444,0,0,0.010850694444444444,51.8337673611111,0)" xlink:href="#aa"/><use transform="matrix(0.010850694444444444,0,0,0.010850694444444444,64.31206597222221,0)" xlink:href="#ak"/><use transform="matrix(0.010850694444444444,0,0,0.010850694444444444,72.30902777777777,0)" xlink:href="#ao"/><use transform="matrix(0.010850694444444444,0,0,0.010850694444444444,85.00434027777777,0)" xlink:href="#aj"/><use transform="matrix(0.010850694444444444,0,0,0.010850694444444444,98.14453125,0)" xlink:href="#al"/><use transform="matrix(0.010850694444444444,0,0,0.010850694444444444,111.10026041666666,0)" xlink:href="#ak"/></g><g id="n"><use transform="matrix(0.010850694444444444,0,0,0.010850694444444444,0,0)" xlink:href="#Y"/><use transform="matrix(0.010850694444444444,0,0,0.010850694444444444,15.33203125,0)" xlink:href="#ao"/><use transform="matrix(0.010850694444444444,0,0,0.010850694444444444,28.02734375,0)" xlink:href="#ao"/><use transform="matrix(0.010850694444444444,0,0,0.010850694444444444,40.72265625,0)" xlink:href="#ac"/><use transform="matrix(0.010850694444444444,0,0,0.010850694444444444,54.04730902777778,0)" xlink:href="#ag"/><use transform="matrix(0.010850694444444444,0,0,0.010850694444444444,67.1875,0)" xlink:href="#ad"/><use transform="matrix(0.010850694444444444,0,0,0.010850694444444444,80.31684027777777,0)" xlink:href="#au"/></g><use transform="matrix(0.010850694444444444,0,0,0.010850694444444444,0,0)" xlink:href="#ad" id="o"/><path d="M180 0v-1490h510c348 0 508 209 508 474 0 266-160 477-507 477H370V0H180zm190-706h312c236 0 327-133 327-310 0-176-91-307-329-307H370v617" id="aB"/><path d="M678-1118v154H420V0H240v-964H20v-154h220v-149c0-194 155-293 318-293 85 0 141 18 168 30l-50 154c-19-6-47-17-97-17-111 0-159 58-159 166v109h258" id="aC"/><g id="p"><use transform="matrix(0.008680555555555556,0,0,0.008680555555555556,0,0)" xlink:href="#aB"/><use transform="matrix(0.008680555555555556,0,0,0.008680555555555556,11.258680555555559,0)" xlink:href="#ac"/><use transform="matrix(0.008680555555555556,0,0,0.008680555555555556,21.91840277777778,0)" xlink:href="#ak"/><use transform="matrix(0.008680555555555556,0,0,0.008680555555555556,28.888888888888893,0)" xlink:href="#au"/><use transform="matrix(0.008680555555555556,0,0,0.008680555555555556,34.270833333333336,0)" xlink:href="#aC"/><use transform="matrix(0.008680555555555556,0,0,0.008680555555555556,40.329861111111114,0)" xlink:href="#ac"/><use transform="matrix(0.008680555555555556,0,0,0.008680555555555556,50.989583333333336,0)" xlink:href="#af"/><use transform="matrix(0.008680555555555556,0,0,0.008680555555555556,55.29513888888889,0)" xlink:href="#an"/><use transform="matrix(0.008680555555555556,0,0,0.008680555555555556,59.60069444444445,0)" xlink:href="#ac"/><use transform="matrix(0.008680555555555556,0,0,0.008680555555555556,70.26041666666667,0)" xlink:href="#aq"/><use transform="matrix(0.008680555555555556,0,0,0.008680555555555556,76.74479166666667,0)" xlink:href="#ap"/><use transform="matrix(0.008680555555555556,0,0,0.008680555555555556,86.12847222222223,0)" xlink:href="#at"/></g><path d="M580 20c-295 0-476-179-476-409 0-189 123-290 294-416-104-125-173-226-173-362 0-197 144-337 365-337 224 0 362 144 362 321 0 185-174 312-306 405l319 387c38-75 61-165 61-267h173c0 208-62 332-120 406L1287 0h-217L967-124C868-27 716 20 580 20zm279-273L507-675l-51 38c-123 91-167 162-167 254 0 147 113 246 278 246 107 0 210-41 292-116zM538-908l97-72c54-40 136-101 136-206 0-95-68-163-176-163-113 0-189 74-189 181 0 90 53 164 132 260" id="aD"/><use transform="matrix(0.008680555555555556,0,0,0.008680555555555556,0,0)" xlink:href="#aD" id="q"/><g id="r"><use transform="matrix(0.008680555555555556,0,0,0.008680555555555556,0,0)" xlink:href="#aB"/><use transform="matrix(0.008680555555555556,0,0,0.008680555555555556,11.354166666666668,0)" xlink:href="#ak"/><use transform="matrix(0.008680555555555556,0,0,0.008680555555555556,17.751736111111114,0)" xlink:href="#ac"/><use transform="matrix(0.008680555555555556,0,0,0.008680555555555556,28.411458333333336,0)" xlink:href="#ah"/><use transform="matrix(0.008680555555555556,0,0,0.008680555555555556,39.296875,0)" xlink:href="#ag"/><use transform="matrix(0.008680555555555556,0,0,0.008680555555555556,49.80902777777778,0)" xlink:href="#ao"/><use transform="matrix(0.008680555555555556,0,0,0.008680555555555556,59.96527777777778,0)" xlink:href="#au"/><use transform="matrix(0.008680555555555556,0,0,0.008680555555555556,65.78125,0)" xlink:href="#aq"/><use transform="matrix(0.008680555555555556,0,0,0.008680555555555556,72.265625,0)" xlink:href="#ap"/><use transform="matrix(0.008680555555555556,0,0,0.008680555555555556,81.64930555555556,0)" xlink:href="#at"/></g><path d="M180 0v-1490h190v1322h690V0H180" id="aE"/><g id="s"><use transform="matrix(0.008680555555555556,0,0,0.008680555555555556,0,0)" xlink:href="#aE"/><use transform="matrix(0.008680555555555556,0,0,0.008680555555555556,10.052083333333334,0)" xlink:href="#aa"/><use transform="matrix(0.008680555555555556,0,0,0.008680555555555556,20.03472222222222,0)" xlink:href="#ag"/><use transform="matrix(0.008680555555555556,0,0,0.008680555555555556,30.546875,0)" xlink:href="#ad"/><use transform="matrix(0.008680555555555556,0,0,0.008680555555555556,41.05034722222222,0)" xlink:href="#ao"/><use transform="matrix(0.008680555555555556,0,0,0.008680555555555556,51.20659722222222,0)" xlink:href="#aj"/></g><g id="t"><use transform="matrix(0.008680555555555556,0,0,0.008680555555555556,0,0)" xlink:href="#av"/><use transform="matrix(0.008680555555555556,0,0,0.008680555555555556,11.180555555555559,0)" xlink:href="#ac"/><use transform="matrix(0.008680555555555556,0,0,0.008680555555555556,21.84027777777778,0)" xlink:href="#af"/><use transform="matrix(0.008680555555555556,0,0,0.008680555555555556,26.145833333333336,0)" xlink:href="#al"/><use transform="matrix(0.008680555555555556,0,0,0.008680555555555556,36.51041666666667,0)" xlink:href="#ap"/></g><g id="u"><use transform="matrix(0.008680555555555556,0,0,0.008680555555555556,0,0)" xlink:href="#Y"/><use transform="matrix(0.008680555555555556,0,0,0.008680555555555556,12.265625,0)" xlink:href="#ap"/><use transform="matrix(0.008680555555555556,0,0,0.008680555555555556,21.649305555555557,0)" xlink:href="#ap"/><use transform="matrix(0.008680555555555556,0,0,0.008680555555555556,31.03298611111111,0)" xlink:href="#al"/><use transform="matrix(0.008680555555555556,0,0,0.008680555555555556,41.39756944444444,0)" xlink:href="#au"/><use transform="matrix(0.008680555555555556,0,0,0.008680555555555556,47.03993055555556,0)" xlink:href="#ap"/></g><path d="M692-1560L212 224H46l480-1784h166" id="aF"/><use transform="matrix(0.008680555555555556,0,0,0.008680555555555556,0,0)" xlink:href="#aF" id="v"/><path d="M98-1322v-168h1126v168H757V0H567v-1322H98" id="aG"/><path d="M158 418v-1536h174v179h20c37-59 106-193 324-193 279 0 474 222 474 576 0 356-194 580-473 580-213 0-288-135-325-197h-14v591H158zm492-555c209 0 317-186 317-421 0-232-105-413-317-413-206 0-314 166-314 413 0 249 111 421 314 421" id="aH"/><g id="w"><use transform="matrix(0.008680555555555556,0,0,0.008680555555555556,0,0)" xlink:href="#aG"/><use transform="matrix(0.008680555555555556,0,0,0.008680555555555556,10.086805555555555,0)" xlink:href="#al"/><use transform="matrix(0.008680555555555556,0,0,0.008680555555555556,20.45138888888889,0)" xlink:href="#Z"/><use transform="matrix(0.008680555555555556,0,0,0.008680555555555556,36.02430555555556,0)" xlink:href="#aH"/><use transform="matrix(0.008680555555555556,0,0,0.008680555555555556,46.909722222222236,0)" xlink:href="#af"/><use transform="matrix(0.008680555555555556,0,0,0.008680555555555556,51.215277777777786,0)" xlink:href="#aa"/><use transform="matrix(0.008680555555555556,0,0,0.008680555555555556,61.19791666666667,0)" xlink:href="#au"/><use transform="matrix(0.008680555555555556,0,0,0.008680555555555556,66.84027777777779,0)" xlink:href="#al"/><use transform="matrix(0.008680555555555556,0,0,0.008680555555555556,77.20486111111111,0)" xlink:href="#ap"/></g><path d="M180 0v-1490h528c311 0 458 177 458 395 0 191-114 278-244 313v14c139 9 302 137 302 371 0 225-148 397-499 397H180zm190-168h350c232 0 321-102 321-231 0-149-120-277-311-277H370v508zm0-668h328c160 0 286-101 286-255 0-129-87-231-280-231H370v486" id="aI"/><g id="x"><use transform="matrix(0.008680555555555556,0,0,0.008680555555555556,0,0)" xlink:href="#aI"/><use transform="matrix(0.008680555555555556,0,0,0.008680555555555556,11.631944444444445,0)" xlink:href="#ag"/><use transform="matrix(0.008680555555555556,0,0,0.008680555555555556,22.14409722222222,0)" xlink:href="#ao"/><use transform="matrix(0.008680555555555556,0,0,0.008680555555555556,32.30034722222222,0)" xlink:href="#aw"/><use transform="matrix(0.008680555555555556,0,0,0.008680555555555556,41.65798611111111,0)" xlink:href="#al"/><use transform="matrix(0.008680555555555556,0,0,0.008680555555555556,52.02256944444445,0)" xlink:href="#au"/></g><g id="y"><use transform="matrix(0.008680555555555556,0,0,0.008680555555555556,0,0)" xlink:href="#av"/><use transform="matrix(0.008680555555555556,0,0,0.008680555555555556,11.180555555555559,0)" xlink:href="#ac"/><use transform="matrix(0.008680555555555556,0,0,0.008680555555555556,21.84027777777778,0)" xlink:href="#af"/><use transform="matrix(0.008680555555555556,0,0,0.008680555555555556,26.145833333333336,0)" xlink:href="#al"/></g><g id="z"><use transform="matrix(0.008680555555555556,0,0,0.008680555555555556,0,0)" xlink:href="#ai"/><use transform="matrix(0.008680555555555556,0,0,0.008680555555555556,11.40625,0)" xlink:href="#au"/><use transform="matrix(0.008680555555555556,0,0,0.008680555555555556,17.30902777777778,0)" xlink:href="#aa"/><use transform="matrix(0.008680555555555556,0,0,0.008680555555555556,27.291666666666668,0)" xlink:href="#ao"/><use transform="matrix(0.008680555555555556,0,0,0.008680555555555556,37.44791666666667,0)" xlink:href="#aw"/><use transform="matrix(0.008680555555555556,0,0,0.008680555555555556,47.204861111111114,0)" xlink:href="#ai"/><use transform="matrix(0.008680555555555556,0,0,0.008680555555555556,58.611111111111114,0)" xlink:href="#al"/><use transform="matrix(0.008680555555555556,0,0,0.008680555555555556,68.97569444444444,0)" xlink:href="#au"/><use transform="matrix(0.008680555555555556,0,0,0.008680555555555556,74.61805555555556,0)" xlink:href="#ap"/></g><path d="M458 0L52-1490h194c108 439 233 855 324 1313 92-459 221-873 331-1313h216c110 438 234 854 330 1307 92-455 216-869 323-1307h196L1558 0h-221l-256-944c-26-95-50-200-73-331-22 122-44 223-73 331L680 0H458" id="aJ"/><g id="A"><use transform="matrix(0.008680555555555556,0,0,0.008680555555555556,0,0)" xlink:href="#Y"/><use transform="matrix(0.008680555555555556,0,0,0.008680555555555556,11.258680555555555,0)" xlink:href="#aJ"/><use transform="matrix(0.008680555555555556,0,0,0.008680555555555556,28.776041666666664,0)" xlink:href="#ai"/></g><path d="M370-1490V0H180v-1490h190" id="aK"/><path d="M180 0v-1490h270l367 940c28 72 75 218 110 339 35-117 81-264 110-339l362-940h271V0h-187c2-448-5-837 7-1287-157 497-311 829-483 1287H842C666-458 514-784 354-1284c12 438 5 843 7 1284H180" id="aL"/><g id="B"><use transform="matrix(0.008680555555555556,0,0,0.008680555555555556,0,0)" xlink:href="#aK"/><use transform="matrix(0.008680555555555556,0,0,0.008680555555555556,4.774305555555555,0)" xlink:href="#Y"/><use transform="matrix(0.008680555555555556,0,0,0.008680555555555556,17.039930555555557,0)" xlink:href="#aL"/></g><path d="M140 405l46-156c120 36 205 19 263-150l32-93L54-1118h197c107 313 237 620 324 950 87-331 219-637 326-950h196L606 167c-68 178-176 259-334 259-64 0-113-12-132-21" id="aM"/><g id="C"><use transform="matrix(0.008680555555555556,0,0,0.008680555555555556,0,0)" xlink:href="#aK"/><use transform="matrix(0.008680555555555556,0,0,0.008680555555555556,4.774305555555555,0)" xlink:href="#ah"/><use transform="matrix(0.008680555555555556,0,0,0.008680555555555556,15.659722222222223,0)" xlink:href="#al"/><use transform="matrix(0.008680555555555556,0,0,0.008680555555555556,26.024305555555557,0)" xlink:href="#ad"/><use transform="matrix(0.008680555555555556,0,0,0.008680555555555556,36.52777777777778,0)" xlink:href="#au"/><use transform="matrix(0.008680555555555556,0,0,0.008680555555555556,42.34375,0)" xlink:href="#an"/><use transform="matrix(0.008680555555555556,0,0,0.008680555555555556,46.64930555555556,0)" xlink:href="#au"/><use transform="matrix(0.008680555555555556,0,0,0.008680555555555556,52.8125,0)" xlink:href="#aM"/></g><g id="D"><use transform="matrix(0.008680555555555556,0,0,0.008680555555555556,0,0)" xlink:href="#ae"/><use transform="matrix(0.008680555555555556,0,0,0.008680555555555556,12.986111111111112,0)" xlink:href="#al"/><use transform="matrix(0.008680555555555556,0,0,0.008680555555555556,23.350694444444446,0)" xlink:href="#ad"/><use transform="matrix(0.008680555555555556,0,0,0.008680555555555556,33.85416666666667,0)" xlink:href="#au"/><use transform="matrix(0.008680555555555556,0,0,0.008680555555555556,39.49652777777778,0)" xlink:href="#al"/><use transform="matrix(0.008680555555555556,0,0,0.008680555555555556,49.861111111111114,0)" xlink:href="#ak"/></g><g id="E"><use transform="matrix(0.008680555555555556,0,0,0.008680555555555556,0,0)" xlink:href="#ae"/><use transform="matrix(0.008680555555555556,0,0,0.008680555555555556,12.986111111111112,0)" xlink:href="#ac"/><use transform="matrix(0.008680555555555556,0,0,0.008680555555555556,23.645833333333336,0)" xlink:href="#ad"/><use transform="matrix(0.008680555555555556,0,0,0.008680555555555556,34.14930555555556,0)" xlink:href="#ap"/><use transform="matrix(0.008680555555555556,0,0,0.008680555555555556,43.532986111111114,0)" xlink:href="#ac"/><use transform="matrix(0.008680555555555556,0,0,0.008680555555555556,54.192708333333336,0)" xlink:href="#af"/><use transform="matrix(0.008680555555555556,0,0,0.008680555555555556,58.49826388888889,0)" xlink:href="#an"/><use transform="matrix(0.008680555555555556,0,0,0.008680555555555556,62.80381944444445,0)" xlink:href="#ah"/><use transform="matrix(0.008680555555555556,0,0,0.008680555555555556,73.68923611111111,0)" xlink:href="#aa"/><use transform="matrix(0.008680555555555556,0,0,0.008680555555555556,83.671875,0)" xlink:href="#au"/><use transform="matrix(0.008680555555555556,0,0,0.008680555555555556,89.31423611111111,0)" xlink:href="#al"/><use transform="matrix(0.008680555555555556,0,0,0.008680555555555556,99.67881944444444,0)" xlink:href="#ah"/></g><g id="F"><use transform="matrix(0.008680555555555556,0,0,0.008680555555555556,0,0)" xlink:href="#ae"/><use transform="matrix(0.008680555555555556,0,0,0.008680555555555556,12.986111111111112,0)" xlink:href="#ac"/><use transform="matrix(0.008680555555555556,0,0,0.008680555555555556,23.645833333333336,0)" xlink:href="#ap"/><use transform="matrix(0.008680555555555556,0,0,0.008680555555555556,33.02951388888889,0)" xlink:href="#au"/></g><g id="G"><use transform="matrix(0.008680555555555556,0,0,0.008680555555555556,0,0)" xlink:href="#aG"/><use transform="matrix(0.008680555555555556,0,0,0.008680555555555556,10.17361111111111,0)" xlink:href="#aa"/><use transform="matrix(0.008680555555555556,0,0,0.008680555555555556,20.15625,0)" xlink:href="#ay"/><use transform="matrix(0.008680555555555556,0,0,0.008680555555555556,31.05902777777778,0)" xlink:href="#ap"/></g><path fill="#333" d="M628 22C291 22 81-210 81-554c0-346 210-578 547-578 265 0 455 142 497 372l-279 52c-25-116-99-188-215-188-160 0-244 139-244 341 0 200 84 341 244 341 116 0 193-74 217-195l279 51C1085-123 896 22 628 22" id="aN"/><path fill="#333" d="M537 19C279 19 81-185 81-557c0-382 206-575 454-575 190 0 278 113 318 202h10v-560h300V0H868v-179h-15C812-89 719 19 537 19zm92-241c153 0 240-134 240-336 0-203-86-334-240-334-158 0-240 138-240 334 0 197 84 336 240 336" id="aO"/><path fill="#333" d="M128 0v-1490h300v802h17l366-430h347L740-633 1179 0H826L514-456l-86 97V0H128" id="aP"/><g id="H"><use transform="matrix(0.008680555555555556,0,0,0.008680555555555556,0,0)" xlink:href="#aN"/><use transform="matrix(0.008680555555555556,0,0,0.008680555555555556,10.460069444444445,0)" xlink:href="#aO"/><use transform="matrix(0.008680555555555556,0,0,0.008680555555555556,21.666666666666668,0)" xlink:href="#aP"/></g><path fill="#333" d="M633 22C291 22 81-200 81-553c0-345 210-579 537-579 292 0 525 185 525 567v84H378c7 183 109 277 260 277 105 0 184-46 216-132l272 51C1071-99 893 22 633 22zM380-669h474c-15-146-94-237-233-237-143 0-229 99-241 237" id="aQ"/><path fill="#333" d="M128 418v-1536h295v188h14c41-89 129-202 319-202 248 0 453 193 453 575 0 372-197 576-455 576-183 0-275-108-317-198h-9v597H128zm534-640c156 0 240-139 240-336 0-196-83-334-240-334-154 0-241 131-241 334 0 202 88 336 241 336" id="aR"/><path fill="#333" d="M428-1490V0H128v-1490h300" id="aS"/><path fill="#333" d="M628 22C291 22 81-210 81-554c0-346 210-578 547-578 336 0 547 232 547 578 0 344-211 576-547 576zm0-236c160 0 242-146 242-341 0-197-82-341-242-341S387-753 387-555c0 195 81 341 241 341" id="aT"/><path fill="#333" d="M120 396l69-226c123 42 245 23 254-107l8-60L31-1118h319c87 288 199 559 259 872 72-308 185-583 277-872h315L726 132c-68 181-186 294-410 294-79 0-153-13-196-30" id="aU"/><g id="I"><use transform="matrix(0.008680555555555556,0,0,0.008680555555555556,0,0)" xlink:href="#aO"/><use transform="matrix(0.008680555555555556,0,0,0.008680555555555556,11.206597222222223,0)" xlink:href="#aQ"/><use transform="matrix(0.008680555555555556,0,0,0.008680555555555556,21.796875,0)" xlink:href="#aR"/><use transform="matrix(0.008680555555555556,0,0,0.008680555555555556,33.00347222222222,0)" xlink:href="#aS"/><use transform="matrix(0.008680555555555556,0,0,0.008680555555555556,37.82118055555556,0)" xlink:href="#aT"/><use transform="matrix(0.008680555555555556,0,0,0.008680555555555556,48.40277777777778,0)" xlink:href="#aU"/></g><path fill="#333" d="M135 0v-1490h591c327 0 492 160 492 383 0 177-115 286-268 320v15c168 8 326 140 326 361 0 236-176 411-512 411H135zm305-251h264c179 0 258-76 258-189 0-125-97-215-250-215H440v404zm0-613h241c131 0 228-74 228-194 0-109-79-183-222-183H440v377" id="aV"/><path fill="#333" d="M128 0v-1118h290v195h12c54-169 184-238 367-200v268c-27-8-86-15-130-15-138 0-239 95-239 234V0H128" id="aW"/><path fill="#333" d="M361 0L31-1118h315c68 295 127 523 188 845 63-317 128-551 199-845h276c71 296 131 525 196 846 57-321 119-552 186-846h319L1378 0h-305c-73-261-148-486-204-771C813-484 740-261 666 0H361" id="aX"/><path fill="#333" d="M572 22C302 22 117-98 78-306l279-48c29 105 101 156 224 156 114 0 185-48 185-115 0-118-228-130-337-155-215-49-322-150-322-317 0-215 187-347 470-347 265 0 424 116 466 298l-266 47c-24-76-87-130-196-130-98 0-174 46-174 113 0 56 38 95 144 117l201 40c216 44 320 143 320 302 0 220-207 367-500 367" id="aY"/><g id="J"><use transform="matrix(0.008680555555555556,0,0,0.008680555555555556,0,0)" xlink:href="#aV"/><use transform="matrix(0.008680555555555556,0,0,0.008680555555555556,11.762152777777779,0)" xlink:href="#aW"/><use transform="matrix(0.008680555555555556,0,0,0.008680555555555556,18.567708333333336,0)" xlink:href="#aT"/><use transform="matrix(0.008680555555555556,0,0,0.008680555555555556,29.227430555555557,0)" xlink:href="#aX"/><use transform="matrix(0.008680555555555556,0,0,0.008680555555555556,44.34027777777778,0)" xlink:href="#aY"/><use transform="matrix(0.008680555555555556,0,0,0.008680555555555556,54.296875,0)" xlink:href="#aQ"/></g><path fill="#333" d="M579 22C270 22 81-162 81-393c0-177 110-281 274-393-80-101-143-210-143-345 0-213 160-377 403-377 238 0 385 158 385 351 0 138-76 251-198 340l-89 64 251 289c39-73 63-161 63-258h251c0 203-53 358-134 465L1367 0h-316l-91-101C852-17 708 22 579 22zm-69-628c-83 57-139 119-136 201 0 113 86 185 214 185 72 0 145-22 210-63zm56-319c74-50 193-114 190-218 0-69-50-123-139-123s-146 55-146 138c0 67 36 129 95 203" id="aZ"/><use transform="matrix(0.008680555555555556,0,0,0.008680555555555556,0,0)" xlink:href="#aZ" id="K"/><path fill="#333" d="M135 0v-1490h305v1237h643V0H135" id="ba"/><path fill="#333" d="M440 22C227 22 68-92 68-313c0-250 202-322 422-343 195-21 271-24 271-105 0-95-63-149-175-149-116 0-187 57-211 129l-275-46c57-194 237-305 487-305 240 0 474 108 474 379V0H777v-155h-10C713-51 605 22 440 22zm85-211c140 0 238-93 238-211v-121c-37 26-156 42-222 51-111 16-185 59-185 149 0 87 70 132 169 132" id="bb"/><path fill="#333" d="M513 14c-232 0-385-159-385-421v-711h300v659c0 139 76 222 202 222 127 0 217-86 217-234v-647h301V0H864l-4-232C797-74 683 14 513 14" id="bc"/><path fill="#333" d="M428-647V0H128v-1118h283l4 231c63-156 176-245 348-245 232 0 384 159 384 421V0H847v-659c0-139-76-222-202-222-128 0-217 86-217 234" id="bd"/><path fill="#333" d="M428-647V0H128v-1490h294v586c65-146 175-228 341-228 232 0 385 159 385 421V0H847v-659c0-139-76-222-202-222-128 0-217 86-217 234" id="be"/><g id="L"><use transform="matrix(0.008680555555555556,0,0,0.008680555555555556,0,0)" xlink:href="#ba"/><use transform="matrix(0.008680555555555556,0,0,0.008680555555555556,10.052083333333334,0)" xlink:href="#bb"/><use transform="matrix(0.008680555555555556,0,0,0.008680555555555556,20.37326388888889,0)" xlink:href="#bc"/><use transform="matrix(0.008680555555555556,0,0,0.008680555555555556,31.44097222222222,0)" xlink:href="#bd"/><use transform="matrix(0.008680555555555556,0,0,0.008680555555555556,42.50868055555556,0)" xlink:href="#aN"/><use transform="matrix(0.008680555555555556,0,0,0.008680555555555556,52.96875,0)" xlink:href="#be"/></g><path fill="#333" d="M789 20C394 20 94-260 94-744c0-487 300-766 695-766s695 279 695 766c0 485-300 764-695 764zm0-271c231 0 385-174 385-493 0-321-154-495-385-495s-385 175-385 495c0 319 154 493 385 493" id="bf"/><path fill="#333" d="M750 21c-371 0-615-218-615-544v-967h305v942c0 174 123 299 310 299s309-125 309-299v-942h306v967c0 326-247 544-615 544" id="bg"/><g id="M"><use transform="matrix(0.008680555555555556,0,0,0.008680555555555556,0,0)" xlink:href="#bf"/><use transform="matrix(0.008680555555555556,0,0,0.008680555555555556,13.697916666666668,0)" xlink:href="#bg"/></g><path fill="#333" d="M681 22C323 22 94-145 85-462h297c10 151 131 226 296 226 163 0 271-77 271-190 0-102-95-149-257-189l-164-41c-252-61-403-188-403-405 0-269 236-449 560-449 330 0 546 183 551 445H941c-11-119-106-188-259-188-156 0-244 72-244 172-3 156 226 185 373 221 250 61 445 186 445 436 0 271-213 446-575 446" id="bh"/><path fill="#333" d="M128 0v-1118h300V0H128zm150-1264c-91 0-165-68-165-154 0-85 74-154 165-154 90 0 165 69 165 154 0 86-75 154-165 154" id="bi"/><path fill="#333" d="M625 442c-280 0-454-114-503-274l258-72c28 63 97 128 243 128 153 0 246-69 246-216v-206h-23C805-108 717-16 536-16 284-16 81-191 81-561c0-378 208-571 456-571 188 0 280 113 321 202h13v-188h295V-9c0 303-226 451-541 451zm5-686c153 0 240-119 240-319 0-198-86-329-240-329-158 0-241 137-241 329 0 195 85 319 241 319" id="bj"/><g id="N"><use transform="matrix(0.008680555555555556,0,0,0.008680555555555556,0,0)" xlink:href="#bh"/><use transform="matrix(0.008680555555555556,0,0,0.008680555555555556,11.640625,0)" xlink:href="#be"/><use transform="matrix(0.008680555555555556,0,0,0.008680555555555556,22.708333333333336,0)" xlink:href="#bb"/><use transform="matrix(0.008680555555555556,0,0,0.008680555555555556,33.02951388888889,0)" xlink:href="#aW"/><use transform="matrix(0.008680555555555556,0,0,0.008680555555555556,40.399305555555564,0)" xlink:href="#bi"/><use transform="matrix(0.008680555555555556,0,0,0.008680555555555556,45.2170138888889,0)" xlink:href="#bd"/><use transform="matrix(0.008680555555555556,0,0,0.008680555555555556,56.284722222222236,0)" xlink:href="#bj"/></g><path d="M645 0H180v-1490h484c435 0 692 280 692 742 0 466-257 748-711 748zM370-168h263c363 0 539-218 539-580 0-358-176-574-521-574H370v1154" id="bk"/><g id="O"><use transform="matrix(0.008680555555555556,0,0,0.008680555555555556,0,0)" xlink:href="#bk"/><use transform="matrix(0.008680555555555556,0,0,0.008680555555555556,12.829861111111112,0)" xlink:href="#al"/><use transform="matrix(0.008680555555555556,0,0,0.008680555555555556,23.194444444444446,0)" xlink:href="#aH"/><use transform="matrix(0.008680555555555556,0,0,0.008680555555555556,34.079861111111114,0)" xlink:href="#af"/><use transform="matrix(0.008680555555555556,0,0,0.008680555555555556,38.38541666666667,0)" xlink:href="#ac"/><use transform="matrix(0.008680555555555556,0,0,0.008680555555555556,48.69791666666667,0)" xlink:href="#aM"/><use transform="matrix(0.008680555555555556,0,0,0.008680555555555556,58.34201388888889,0)" xlink:href="#al"/><use transform="matrix(0.008680555555555556,0,0,0.008680555555555556,68.70659722222223,0)" xlink:href="#ah"/></g><g id="P"><use transform="matrix(0.008680555555555556,0,0,0.008680555555555556,0,0)" xlink:href="#aG"/><use transform="matrix(0.008680555555555556,0,0,0.008680555555555556,10.17361111111111,0)" xlink:href="#aa"/><use transform="matrix(0.008680555555555556,0,0,0.008680555555555556,20.15625,0)" xlink:href="#ay"/><use transform="matrix(0.008680555555555556,0,0,0.008680555555555556,31.05902777777778,0)" xlink:href="#ay"/><use transform="matrix(0.008680555555555556,0,0,0.008680555555555556,41.96180555555556,0)" xlink:href="#al"/><use transform="matrix(0.008680555555555556,0,0,0.008680555555555556,52.32638888888889,0)" xlink:href="#ah"/></g><g id="Q"><use transform="matrix(0.008680555555555556,0,0,0.008680555555555556,0,0)" xlink:href="#av"/><use transform="matrix(0.008680555555555556,0,0,0.008680555555555556,11.180555555555559,0)" xlink:href="#al"/><use transform="matrix(0.008680555555555556,0,0,0.008680555555555556,21.545138888888893,0)" xlink:href="#ap"/><use transform="matrix(0.008680555555555556,0,0,0.008680555555555556,30.92881944444445,0)" xlink:href="#ac"/><use transform="matrix(0.008680555555555556,0,0,0.008680555555555556,41.58854166666667,0)" xlink:href="#ag"/><use transform="matrix(0.008680555555555556,0,0,0.008680555555555556,52.10069444444445,0)" xlink:href="#ak"/><use transform="matrix(0.008680555555555556,0,0,0.008680555555555556,58.4982638888889,0)" xlink:href="#ao"/><use transform="matrix(0.008680555555555556,0,0,0.008680555555555556,68.6545138888889,0)" xlink:href="#al"/><use transform="matrix(0.008680555555555556,0,0,0.008680555555555556,79.01909722222223,0)" xlink:href="#ap"/></g><g id="R"><use transform="matrix(0.010850694444444444,0,0,0.010850694444444444,0,0)" xlink:href="#Y"/><use transform="matrix(0.010850694444444444,0,0,0.010850694444444444,15.33203125,0)" xlink:href="#ah"/><use transform="matrix(0.010850694444444444,0,0,0.010850694444444444,28.938802083333332,0)" xlink:href="#Z"/><use transform="matrix(0.010850694444444444,0,0,0.010850694444444444,48.404947916666664,0)" xlink:href="#an"/><use transform="matrix(0.010850694444444444,0,0,0.010850694444444444,53.78689236111111,0)" xlink:href="#ad"/><use transform="matrix(0.010850694444444444,0,0,0.010850694444444444,66.91623263888889,0)" xlink:href="#ap"/></g><g id="S"><use transform="matrix(0.010850694444444444,0,0,0.010850694444444444,0,0)" xlink:href="#av"/><use transform="matrix(0.010850694444444444,0,0,0.010850694444444444,13.975694444444445,0)" xlink:href="#al"/><use transform="matrix(0.010850694444444444,0,0,0.010850694444444444,26.931423611111104,0)" xlink:href="#ap"/><use transform="matrix(0.010850694444444444,0,0,0.010850694444444444,38.66102430555555,0)" xlink:href="#al"/><use transform="matrix(0.010850694444444444,0,0,0.010850694444444444,51.8337673611111,0)" xlink:href="#aa"/><use transform="matrix(0.010850694444444444,0,0,0.010850694444444444,64.31206597222221,0)" xlink:href="#ak"/><use transform="matrix(0.010850694444444444,0,0,0.010850694444444444,72.30902777777777,0)" xlink:href="#ao"/><use transform="matrix(0.010850694444444444,0,0,0.010850694444444444,85.00434027777777,0)" xlink:href="#aj"/><use transform="matrix(0.010850694444444444,0,0,0.010850694444444444,98.14453125,0)" xlink:href="#al"/><use transform="matrix(0.010850694444444444,0,0,0.010850694444444444,111.10026041666666,0)" xlink:href="#ak"/><use transform="matrix(0.010850694444444444,0,0,0.010850694444444444,119.46614583333334,0)" xlink:href="#ap"/></g><g id="T"><use transform="matrix(0.008680555555555556,0,0,0.008680555555555556,0,0)" xlink:href="#ba"/><use transform="matrix(0.008680555555555556,0,0,0.008680555555555556,10.052083333333334,0)" xlink:href="#aT"/><use transform="matrix(0.008680555555555556,0,0,0.008680555555555556,20.954861111111114,0)" xlink:href="#bj"/></g><path fill="#333" d="M440-1490V0H135v-1490h305" id="bl"/><g id="U"><use transform="matrix(0.008680555555555556,0,0,0.008680555555555556,0,0)" xlink:href="#bl"/><use transform="matrix(0.008680555555555556,0,0,0.008680555555555556,4.991319444444445,0)" xlink:href="#bd"/></g><g id="V"><use transform="matrix(0.008680555555555556,0,0,0.008680555555555556,0,0)" xlink:href="#ae"/><use transform="matrix(0.008680555555555556,0,0,0.008680555555555556,12.986111111111112,0)" xlink:href="#ac"/><use transform="matrix(0.008680555555555556,0,0,0.008680555555555556,23.645833333333336,0)" xlink:href="#ap"/><use transform="matrix(0.008680555555555556,0,0,0.008680555555555556,33.02951388888889,0)" xlink:href="#au"/></g><g id="W"><use transform="matrix(0.008680555555555556,0,0,0.008680555555555556,0,0)" xlink:href="#Y"/><use transform="matrix(0.008680555555555556,0,0,0.008680555555555556,12.265625,0)" xlink:href="#ad"/><use transform="matrix(0.008680555555555556,0,0,0.008680555555555556,22.769097222222225,0)" xlink:href="#aa"/><use transform="matrix(0.008680555555555556,0,0,0.008680555555555556,32.751736111111114,0)" xlink:href="#af"/><use transform="matrix(0.008680555555555556,0,0,0.008680555555555556,37.14409722222223,0)" xlink:href="#aM"/><use transform="matrix(0.008680555555555556,0,0,0.008680555555555556,47.13541666666667,0)" xlink:href="#ap"/><use transform="matrix(0.008680555555555556,0,0,0.008680555555555556,56.51909722222222,0)" xlink:href="#an"/><use transform="matrix(0.008680555555555556,0,0,0.008680555555555556,60.824652777777786,0)" xlink:href="#ap"/></g><g id="X"><use transform="matrix(0.008680555555555556,0,0,0.008680555555555556,0,0)" xlink:href="#ai"/><use transform="matrix(0.008680555555555556,0,0,0.008680555555555556,11.40625,0)" xlink:href="#al"/><use transform="matrix(0.008680555555555556,0,0,0.008680555555555556,21.770833333333336,0)" xlink:href="#ak"/><use transform="matrix(0.008680555555555556,0,0,0.008680555555555556,28.74131944444445,0)" xlink:href="#am"/><use transform="matrix(0.008680555555555556,0,0,0.008680555555555556,38.73263888888889,0)" xlink:href="#an"/><use transform="matrix(0.008680555555555556,0,0,0.008680555555555556,43.03819444444444,0)" xlink:href="#ao"/><use transform="matrix(0.008680555555555556,0,0,0.008680555555555556,53.19444444444445,0)" xlink:href="#al"/><use transform="matrix(0.008680555555555556,0,0,0.008680555555555556,63.559027777777786,0)" xlink:href="#ap"/></g></defs></g></svg>